<?xml version="1.0" standalone="no"?>
<!DOCTYPE svg PUBLIC "-//W3C//DTD SVG 1.1//EN" "http://www.w3.org/Graphics/SVG/1.1/DTD/svg11.dtd" >
<svg xmlns="http://www.w3.org/2000/svg">
<metadata></metadata>
<defs>
<font id="NovaticaMediumRegular" horiz-adv-x="1253" >
<font-face units-per-em="2048" ascent="1638" descent="-410" />
<missing-glyph horiz-adv-x="552" />
<glyph horiz-adv-x="0" />
<glyph horiz-adv-x="0" />
<glyph unicode=" "  horiz-adv-x="552" />
<glyph unicode="&#x09;" horiz-adv-x="552" />
<glyph unicode="&#xa0;" horiz-adv-x="552" />
<glyph unicode="!" horiz-adv-x="481" d="M82 145q0 68 45 113t115 45q68 0 112.5 -45t44.5 -113q0 -70 -45 -114.5t-112 -44.5q-70 0 -115 44.5t-45 114.5zM92 1462h297l-51 -1042h-195z" />
<glyph unicode="&#x22;" horiz-adv-x="833" d="M102 1462h252l-30 -594h-191zM479 1462h252l-31 -594h-190z" />
<glyph unicode="#" horiz-adv-x="1415" d="M0 356v191h268l115 368h-203v191h262l113 356h209l-113 -356h346l113 356h209l-113 -356h209v-191h-268l-115 -368h203v-191h-264l-111 -356h-209l111 356h-346l-111 -356h-209l111 356h-207zM477 547h346l115 368h-346z" />
<glyph unicode="$" horiz-adv-x="1320" d="M66 451h241q-14 -117 53.5 -185.5t212.5 -85.5v457q-90 18 -176 46t-154.5 74t-110.5 118.5t-42 183.5q0 86 32 160.5t93 131t151.5 91.5t206.5 45v258h179v-258q131 -12 223 -52t149.5 -102.5t82 -144.5t20.5 -176h-242q6 102 -46 176t-187 94v-455q92 -18 183 -42.5 t162.5 -70.5t117 -120t45.5 -191q0 -176 -128 -292.5t-380 -135.5v-258h-179v258q-150 8 -250 50.5t-159.5 107t-82 146t-15.5 172.5zM336 1069q0 -45 17.5 -78t49 -56.5t75.5 -40.5t95 -30v418q-119 -16 -178 -72.5t-59 -140.5zM752 180q131 16 196.5 72.5t65.5 142.5 q0 45 -20.5 78t-55.5 56.5t-83 40t-103 28.5v-418z" />
<glyph unicode="%" horiz-adv-x="1630" d="M61 1110q0 109 28 181.5t74 117.5t106.5 63.5t125.5 18.5q66 0 126.5 -18.5t106.5 -63.5t72.5 -117.5t26.5 -181.5t-26.5 -181.5t-72.5 -117.5t-106.5 -63.5t-126.5 -18.5t-126 18.5t-106 63.5t-74 117.5t-28 181.5zM240 0l921 1462h232l-922 -1462h-231zM262 1110 q0 -57 11.5 -95t30 -61.5t42 -34t49.5 -10.5q27 0 50.5 10.5t42 34t29.5 61.5t11 95t-11 96t-29.5 62.5t-42 34t-50.5 10.5q-53 0 -93 -44t-40 -159zM903 352q0 109 27.5 181.5t74 117.5t106.5 63.5t126 18.5t126 -18.5t106.5 -63.5t73 -117.5t26.5 -181.5t-26.5 -181.5 t-73 -117.5t-106.5 -63.5t-126 -18.5t-126 18.5t-106.5 63.5t-74 118t-27.5 181zM1104 352q0 -57 11 -95t29.5 -61.5t42 -33.5t50.5 -10t50.5 10t42 33.5t29.5 61.5t11 95t-11 96t-29.5 63t-42 34t-50.5 10q-53 0 -93 -44t-40 -159z" />
<glyph unicode="&#x26;" horiz-adv-x="1425" d="M41 362q0 80 23.5 141.5t64.5 110t96.5 87t118.5 73.5v21q-94 86 -136 163.5t-42 165.5q0 86 31.5 154t86 116t128 73.5t159.5 25.5q84 0 159 -25.5t130 -73.5t87 -117t32 -155q0 -66 -19.5 -118t-55.5 -94t-85 -77.5t-106 -66.5v-21l272 -231q14 51 22.5 109.5 t8.5 128.5h231q0 -119 -18.5 -216.5t-52.5 -177.5l249 -206l-127 -181l-241 203q-98 -106 -230.5 -154.5t-275.5 -48.5q-115 0 -208 30t-160.5 82t-104.5 124t-37 155zM283 362q0 -84 73.5 -137t194.5 -53q92 0 178 35t152 110l-381 320q-88 -49 -152.5 -114t-64.5 -161z M408 1124q0 -57 30.5 -112.5t98.5 -120.5q82 47 141 100t59 131t-48 124t-118 46t-116.5 -45t-46.5 -123z" />
<glyph unicode="'" horiz-adv-x="456" d="M102 1462h252l-30 -594h-191z" />
<glyph unicode="(" horiz-adv-x="649" d="M102 725q0 147 24 276t65.5 243t102 212t134.5 186h262q-147 -190 -236 -419.5t-89 -497.5q0 -258 89 -488.5t236 -416.5h-262q-147 172 -236.5 393t-89.5 512z" />
<glyph unicode=")" horiz-adv-x="649" d="M-41 -180q147 190 236.5 419.5t89.5 497.5q0 258 -89.5 488.5t-236.5 416.5h262q147 -172 236.5 -393t89.5 -512q0 -147 -23.5 -276t-65.5 -243t-102.5 -212t-134.5 -186h-262z" />
<glyph unicode="*" horiz-adv-x="970" d="M61 1161l70 207l277 -123l-31 305h217l-31 -305l279 125l67 -207l-297 -65l201 -226l-174 -129l-154 269l-155 -269l-176 131l200 224z" />
<glyph unicode="+" horiz-adv-x="1048" d="M61 635v205h347v370h233v-370h346v-205h-346v-369h-233v369h-347z" />
<glyph unicode="," horiz-adv-x="440" d="M41 -266l57 536h271l-154 -536h-174z" />
<glyph unicode="-" horiz-adv-x="550" d="M61 426v205h428v-205h-428z" />
<glyph unicode="." horiz-adv-x="440" d="M61 145q0 68 45.5 113t114.5 45q68 0 113 -45t45 -113q0 -70 -45 -114.5t-113 -44.5q-70 0 -115 44.5t-45 114.5z" />
<glyph unicode="/" horiz-adv-x="765" d="M-61 -180l679 1822h209l-680 -1822h-208z" />
<glyph unicode="0" horiz-adv-x="1144" d="M41 731q0 217 43 362.5t116.5 233.5t170 126t202.5 38q104 0 200.5 -38t170.5 -126t117 -233.5t43 -362.5t-43 -362.5t-117 -233.5t-170 -126t-201 -38q-106 0 -202.5 38t-170 126t-116.5 233.5t-43 362.5zM283 731q0 -287 80.5 -422t209.5 -135q127 0 208 135t81 422 t-81 423t-208 136q-129 0 -209.5 -136t-80.5 -423z" />
<glyph unicode="1" horiz-adv-x="794" d="M25 1221l421 241h238v-1462h-238v1206h-20l-297 -172z" />
<glyph unicode="2" horiz-adv-x="1079" d="M37 967q-10 96 11.5 190t79.5 168t156.5 120t243.5 46q113 0 204 -33t155.5 -92t99.5 -143t35 -189q0 -135 -69.5 -240.5t-180.5 -201.5l-412 -367v-16h662v-209h-983v209l575 530q43 41 75 77t51.5 71t29.5 69.5t10 75.5q0 117 -67.5 184.5t-182.5 67.5 q-59 0 -108 -19.5t-84 -58.5t-52.5 -98t-13.5 -141h-235z" />
<glyph unicode="3" horiz-adv-x="1107" d="M43 475h242q-6 -145 65.5 -221t206.5 -76q119 0 193.5 67.5t74.5 178.5q0 59 -21.5 104t-58 75t-85 45.5t-101.5 15.5h-82v198h72q98 0 166.5 53.5t68.5 153.5q0 106 -68.5 160.5t-172.5 54.5q-53 0 -100.5 -15.5t-81 -48t-52 -85t-14.5 -125.5h-244q-6 129 31 221 t104.5 149.5t159.5 84t197 26.5q82 0 167 -18.5t155.5 -62.5t115.5 -120t45 -190q0 -59 -18.5 -107.5t-48 -87.5t-69.5 -66.5t-83 -45.5v-21q49 -14 96 -47t83 -79t58.5 -104.5t22.5 -123.5q0 -117 -45 -202t-118 -139t-166 -80t-189 -26q-260 0 -389 134.5t-117 369.5z" />
<glyph unicode="4" horiz-adv-x="1097" d="M8 319v203l664 940h270v-932h135v-211h-135v-319h-229v319h-705zM274 530h439v621h-21l-418 -600v-21z" />
<glyph unicode="5" horiz-adv-x="1103" d="M43 428h244q-4 -55 10 -102t47 -82t87 -54.5t130 -19.5q61 0 109.5 22.5t82 61.5t51 91t17.5 110q0 125 -65.5 198.5t-198.5 73.5q-80 0 -146.5 -32.5t-113.5 -88.5l-215 64l22 792h861v-209h-656l-18 -442h16q53 51 135 80t162 29q100 0 184 -32t145.5 -91.5 t95.5 -145.5t34 -196q0 -115 -44 -205t-114.5 -151.5t-160 -94.5t-179.5 -33q-152 0 -254 39t-163.5 102.5t-86 146.5t-18.5 169z" />
<glyph unicode="6" horiz-adv-x="1179" d="M41 686q0 178 36 325.5t106.5 254t176 166t244.5 59.5q129 0 221.5 -35t152.5 -94t88 -138t28 -169h-242q0 49 -13.5 92t-42 75.5t-74.5 51t-114 18.5q-156 0 -239.5 -145.5t-83.5 -409.5h16q78 104 172 140t203 36q96 0 180 -28.5t147.5 -87t99.5 -144.5t36 -202 q0 -102 -39 -189.5t-109.5 -152t-170 -101.5t-218.5 -37q-166 0 -274.5 58.5t-172 157t-89 228.5t-25.5 271zM322 446q0 -55 16 -105t51 -88t89 -60.5t132 -22.5q76 0 131.5 22.5t89 60.5t50 88t16.5 105t-16.5 105.5t-50 87.5t-89 59.5t-131.5 22.5q-72 0 -126 -22.5 t-90 -59.5t-54 -87.5t-18 -105.5z" />
<glyph unicode="7" horiz-adv-x="1050" d="M29 1253v209h993v-194l-557 -1268h-260l563 1233v20h-739z" />
<glyph unicode="8" horiz-adv-x="1185" d="M41 418q0 66 23.5 124t61.5 104t88 79t103 47v21q-47 18 -89 45.5t-75.5 66.5t-53 87t-19.5 108q0 115 47 190.5t122 119.5t166 62.5t179 18.5t179 -18.5t166 -62.5t122 -120t47 -190q0 -59 -20.5 -107.5t-53.5 -87.5t-76 -66.5t-88 -45.5v-21q53 -14 102.5 -47t88.5 -79 t61.5 -104.5t22.5 -123.5q0 -117 -46 -202t-123 -139t-176.5 -80t-205.5 -26t-205.5 26t-176.5 80t-124 139t-47 202zM283 422q0 -119 87 -181.5t224 -62.5t223 62.5t86 181.5q0 63 -24.5 109.5t-66.5 77t-98.5 45t-119.5 14.5t-119.5 -14.5t-99.5 -45t-67.5 -77 t-24.5 -109.5zM324 1071q0 -104 76.5 -158.5t193.5 -54.5t193.5 54.5t76.5 158.5q0 109 -76.5 161t-193.5 52q-119 0 -194.5 -52t-75.5 -161z" />
<glyph unicode="9" horiz-adv-x="1179" d="M41 1012q0 102 39 190t109.5 152.5t170 100.5t218.5 36q166 0 274.5 -58.5t171.5 -156.5t89 -228t26 -272q0 -178 -35 -325.5t-105.5 -254t-176 -166t-247.5 -59.5q-129 0 -221 35t-151.5 94.5t-87 138t-27.5 169.5h242q0 -49 13 -92.5t42 -76t75 -51t111 -18.5 q158 0 241 145.5t83 411.5h-16q-76 -104 -170.5 -141t-202.5 -37q-96 0 -181 28.5t-148.5 87t-99.5 145.5t-36 202zM283 1018q0 -55 16 -105.5t51 -88.5t89.5 -60.5t129.5 -22.5q74 0 128.5 22.5t90 60.5t53 88.5t17.5 105.5t-16.5 104t-51 87t-89 60.5t-132.5 22.5 q-76 0 -130 -22.5t-89 -60.5t-51 -87t-16 -104z" />
<glyph unicode=":" horiz-adv-x="440" d="M61 145q0 68 45.5 113t114.5 45q68 0 113 -45t45 -113q0 -70 -45 -114.5t-113 -44.5q-70 0 -115 44.5t-45 114.5zM61 913q0 70 45.5 114t114.5 44q68 0 113 -44t45 -114t-45 -114.5t-113 -44.5q-70 0 -115 44.5t-45 114.5z" />
<glyph unicode=";" horiz-adv-x="440" d="M41 -266l57 536h271l-154 -536h-174zM61 913q0 70 45.5 114t114.5 44q68 0 113 -44t45 -114t-45 -114.5t-113 -44.5q-70 0 -115 44.5t-45 114.5z" />
<glyph unicode="&#x3c;" horiz-adv-x="1048" d="M61 610v256l926 328v-238l-665 -208v-9l665 -211v-243z" />
<glyph unicode="=" horiz-adv-x="1048" d="M61 430v205h926v-205h-926zM61 840v204h926v-204h-926z" />
<glyph unicode="&#x3e;" horiz-adv-x="1048" d="M61 283v237l666 209v8l-666 211v244l926 -326v-256z" />
<glyph unicode="?" horiz-adv-x="1169" d="M86 979q-10 94 10.5 185t78.5 164t157.5 118t247.5 45q242 0 374.5 -115.5t132.5 -324.5q0 -72 -23.5 -140.5t-72.5 -127t-127 -104.5t-184 -71l-10 -188h-193l-18 342q104 6 178 30.5t120 63.5t67.5 87t21.5 97q0 111 -65.5 177.5t-198.5 66.5q-129 0 -201 -75.5 t-59 -229.5h-236zM416 145q0 68 44 113t113 45q70 0 114 -45t44 -113q0 -70 -44 -114.5t-114 -44.5t-113.5 44.5t-43.5 114.5z" />
<glyph unicode="@" horiz-adv-x="2265" d="M123 438q0 233 86 427t234.5 333t348 216t427.5 77q209 0 378.5 -61.5t290.5 -174t187.5 -269.5t66.5 -349q0 -160 -41 -274.5t-107.5 -190.5t-150.5 -111.5t-168 -35.5q-51 0 -97 11t-83 33.5t-60.5 56.5t-29.5 79h-21q-68 -92 -173 -136t-212 -44q-88 0 -160.5 27.5 t-123.5 81.5t-80 132t-29 176q0 123 38 228.5t106.5 184.5t163 123t206.5 44q88 0 164 -33t123 -108h18l31 116h199l-74 -587q-16 -115 13.5 -157t93.5 -42q45 0 88 24.5t76.5 77t54 133t20.5 191.5q0 152 -50 273.5t-142.5 207.5t-223.5 132t-292 46q-184 0 -345 -61 t-280 -174t-187.5 -271.5t-68.5 -351.5q0 -152 51 -273.5t144.5 -207.5t223.5 -133t287 -47q248 0 488 125l94 -174q-127 -72 -271.5 -109t-310.5 -37q-207 0 -376.5 62.5t-290.5 175t-187.5 270.5t-66.5 348zM825 461q0 -111 60.5 -176.5t177.5 -65.5q72 0 131 26.5t101 75 t65.5 117t23.5 152.5q0 104 -57 171.5t-180 67.5q-72 0 -131.5 -26.5t-101.5 -74.5t-65.5 -116.5t-23.5 -150.5z" />
<glyph unicode="A" horiz-adv-x="1351" d="M-41 0l569 1462h295l570 -1462h-275l-127 340h-643l-125 -340h-264zM426 557h487l-233 633h-21z" />
<glyph unicode="B" horiz-adv-x="1349" d="M102 0v1462h695q123 0 209 -29.5t139 -81t77.5 -120t24.5 -144.5q0 -115 -52 -204.5t-175 -134.5v-21q145 -41 206.5 -136t61.5 -216q0 -78 -24.5 -146.5t-77.5 -119t-139 -80t-209 -29.5h-736zM344 219h471q123 0 173 58.5t50 144.5q0 43 -12 80t-37.5 64.5t-68.5 44 t-105 16.5h-471v-408zM344 836h438q61 0 104.5 16t69 44t38 64.5t12.5 79.5t-12.5 80t-38 64.5t-68.5 44t-105 16.5h-438v-409z" />
<glyph unicode="C" horiz-adv-x="1472" d="M61 731q0 193 54.5 336t149.5 237.5t226.5 140.5t284.5 46q119 0 230.5 -35t199.5 -102.5t143.5 -168t61.5 -231.5h-250q-6 78 -41 138.5t-87 100.5t-118.5 60.5t-138.5 20.5q-100 0 -185 -33t-147.5 -100.5t-97.5 -170t-35 -239.5t35 -238.5t97.5 -169t147.5 -100.5 t185 -33q72 0 138.5 20.5t118.5 60.5t87 100.5t41 138.5h250q-6 -133 -61.5 -233.5t-143.5 -168t-199.5 -102.5t-230.5 -35q-154 0 -285 46t-226 140.5t-149.5 238t-54.5 335.5z" />
<glyph unicode="D" horiz-adv-x="1452" d="M102 0v1462h584q145 0 274.5 -39t224.5 -126t150.5 -226t55.5 -340t-55.5 -340t-150.5 -226t-224.5 -126t-274.5 -39h-584zM344 219h311q113 0 203 28.5t153.5 90t96.5 159t33 234.5t-33 234.5t-96.5 160t-153.5 91t-203 28.5h-311v-1026z" />
<glyph unicode="E" horiz-adv-x="1226" d="M102 0v1462h1053v-217h-811v-405h719v-217h-719v-404h821v-219h-1063z" />
<glyph unicode="F" horiz-adv-x="1155" d="M102 0v1462h1012v-217h-770v-467h678v-217h-678v-561h-242z" />
<glyph unicode="G" horiz-adv-x="1533" d="M61 731q0 193 55.5 336t150.5 237.5t224.5 140.5t278.5 46q125 0 237.5 -34t199.5 -99.5t141.5 -160.5t62.5 -218h-252q-23 141 -129 218t-260 77q-96 0 -179 -33t-145.5 -100.5t-98.5 -170t-36 -239.5t36 -238.5t98.5 -169t145.5 -100.5t179 -33q76 0 149.5 21.5t132 66 t95.5 110t43 151.5h-426v217h668v-756h-213l-21 158h-20q-92 -106 -206 -146.5t-231 -40.5q-141 0 -265 48.5t-216 143.5t-145.5 237.5t-53.5 330.5z" />
<glyph unicode="H" horiz-adv-x="1472" d="M102 0v1462h242v-622h784v622h242v-1462h-242v623h-784v-623h-242z" />
<glyph unicode="I" horiz-adv-x="446" d="M102 0v1462h242v-1462h-242z" />
<glyph unicode="J" horiz-adv-x="1126" d="M23 455h243q-1 -11 -1 -21q0 -108 57 -173q61 -71 196 -71t198.5 82t63.5 260v930h244v-921q0 -297 -124 -433.5t-386 -136.5q-131 0 -226 35t-154.5 97.5t-87.5 151.5q-24 76 -24 167q0 16 1 33z" />
<glyph unicode="K" horiz-adv-x="1308" d="M102 0v1462h242v-651h21l645 651h299l-699 -708l740 -754h-334l-651 662h-21v-662h-242z" />
<glyph unicode="L" horiz-adv-x="1124" d="M102 0v1462h242v-1243h760v-219h-1002z" />
<glyph unicode="M" horiz-adv-x="1808" d="M102 0v1462h361l438 -1147h21l436 1147h348v-1462h-233v1090h-21l-424 -1090h-254l-418 1090h-20v-1090h-234z" />
<glyph unicode="N" horiz-adv-x="1474" d="M102 0v1462h252l758 -1052h21v1052h237v-1462h-252l-758 1053h-20v-1053h-238z" />
<glyph unicode="O" horiz-adv-x="1574" d="M61 731q0 182 50.5 323.5t143.5 239t228 147.5t305 50q168 0 303.5 -50t228.5 -147.5t143 -239t50 -323.5t-50 -324.5t-143 -238.5t-228.5 -146.5t-303.5 -50.5q-170 0 -305 50.5t-228 146.5t-143.5 238.5t-50.5 324.5zM311 731q0 -262 127 -401.5t350 -139.5 t349.5 139.5t126.5 401.5t-126 402.5t-350 140.5q-223 0 -350 -140.5t-127 -402.5z" />
<glyph unicode="P" horiz-adv-x="1294" d="M102 0v1462h570q160 0 267.5 -38t173 -103.5t93 -153.5t27.5 -186t-27.5 -185t-93 -154t-173.5 -104.5t-267 -37.5h-328v-500h-242zM344 717h315q174 0 249 72.5t75 191.5t-74.5 191.5t-249.5 72.5h-315v-528z" />
<glyph unicode="Q" horiz-adv-x="1574" d="M61 731q0 182 50.5 323.5t143.5 239t228 147.5t305 50q168 0 303.5 -50t228.5 -147.5t143 -239t50 -323.5q0 -449 -309 -629v-20l350 -203l-120 -209l-533 307q-56 -6 -113 -6q-170 0 -305 50.5t-228 146.5t-143.5 238.5t-50.5 324.5zM311 731q0 -262 127 -401.5 t350 -139.5t349.5 139.5t126.5 401.5t-126 402.5t-350 140.5q-223 0 -350 -140.5t-127 -402.5z" />
<glyph unicode="R" horiz-adv-x="1376" d="M102 0v1462h613q147 0 247.5 -32.5t161 -90t87 -133.5t26.5 -162q0 -129 -60.5 -230t-205.5 -152v-21q68 -18 113.5 -50t77.5 -76t52.5 -100.5t36.5 -125.5l64 -289h-252l-62 281q-10 57 -29.5 105t-55 83t-92 53.5t-140.5 18.5h-340v-541h-242zM344 758h340 q164 0 233.5 66.5t69.5 176.5q0 111 -69.5 177.5t-233.5 66.5h-340v-487z" />
<glyph unicode="S" horiz-adv-x="1320" d="M66 451h241q-2 -20 -2 -39q0 -105 76 -165q90 -71 281 -71q176 0 264 60.5t88 158.5q0 63 -40 103.5t-104.5 66t-147.5 42t-170 36t-170 47t-147.5 73.5t-104.5 117.5t-40 178.5q0 94 37 174t108.5 137t177 89t240.5 32q158 0 269.5 -36t180 -100.5t99.5 -152.5 q26 -74 26 -157q0 -16 -1 -33h-242q1 12 1 23q0 44 -12 85q-16 51 -53.5 88t-102 58.5t-159.5 21.5q-162 0 -242.5 -60.5t-80.5 -158.5q0 -68 40 -108.5t104.5 -66.5t147.5 -41t170 -33.5t170 -45t147.5 -73t104.5 -118t40 -180.5q0 -96 -38 -174.5t-113 -136t-187.5 -89.5 t-259.5 -32q-176 0 -294 39t-186.5 104.5t-95.5 152.5q-21 69 -21 144q0 20 1 40z" />
<glyph unicode="T" horiz-adv-x="1198" d="M0 1245v217h1198v-217h-479v-1245h-242v1245h-477z" />
<glyph unicode="U" horiz-adv-x="1472" d="M102 563v899h242v-897q0 -197 102.5 -286t290.5 -89q193 0 292 89.5t99 285.5v897h242v-899q0 -309 -165 -450.5t-468 -141.5q-150 0 -267.5 35t-199.5 106.5t-125 184.5t-43 266z" />
<glyph unicode="V" horiz-adv-x="1351" d="M-41 1462h274l439 -1171h20l441 1171h260l-568 -1462h-295z" />
<glyph unicode="W" horiz-adv-x="1949" d="M-41 1462h274l291 -1118h21l301 1118h270l301 -1118h21l291 1118h262l-422 -1462h-295l-289 1057h-20l-287 -1057h-295z" />
<glyph unicode="X" horiz-adv-x="1390" d="M0 0l549 727l-549 735h305l387 -532h17l393 532h289l-547 -725l547 -737h-304l-389 532h-16l-391 -532h-291z" />
<glyph unicode="Y" horiz-adv-x="1310" d="M-41 1462h293l399 -657h19l403 657h279l-576 -919v-543h-241v543z" />
<glyph unicode="Z" horiz-adv-x="1267" d="M61 0v219l826 1006v20h-826v217h1145v-217l-823 -1005v-21h823v-219h-1145z" />
<glyph unicode="[" horiz-adv-x="583" d="M102 -180v1822h461v-217h-219v-1386h219v-219h-461z" />
<glyph unicode="\" horiz-adv-x="765" d="M-61 1642h208l680 -1822h-209z" />
<glyph unicode="]" horiz-adv-x="583" d="M20 39h220v1386h-220v217h461v-1822h-461v219z" />
<glyph unicode="^" horiz-adv-x="1067" d="M-39 406l442 1056h265l442 -1056h-254l-311 786h-19l-309 -786h-256z" />
<glyph unicode="_" horiz-adv-x="1105" d="M10 -29h1086v-184h-1086v184z" />
<glyph unicode="`" horiz-adv-x="688" d="M102 1532h283l201 -324h-226z" />
<glyph unicode="a" horiz-adv-x="1273" d="M61 528q0 141 41 247t110 174.5t158 102t185 33.5q238 0 363 -174h20l20 146h213v-1057h-213l-20 145h-20q-127 -174 -363 -174q-96 0 -185 34t-158 103.5t-110 174t-41 245.5zM295 528q0 -182 90 -269t233 -87q70 0 128.5 22.5t101.5 67.5t66.5 111.5t23.5 154.5 q0 174 -90 265.5t-230 91.5q-143 0 -233 -87.5t-90 -269.5z" />
<glyph unicode="b" horiz-adv-x="1273" d="M102 0v1462h234v-551h20q129 174 363 174q96 0 185 -33.5t157.5 -102t109.5 -174t41 -247.5q0 -141 -41 -245.5t-109.5 -174t-157.5 -103.5t-185 -34q-231 0 -363 174h-20l-21 -145h-213zM336 528q0 -176 90 -266t231 -90t231.5 87t90.5 269t-90 269.5t-232 87.5 q-141 0 -231 -90t-90 -267z" />
<glyph unicode="c" horiz-adv-x="1140" d="M61 528q0 141 42 246t116 174.5t175.5 103t219.5 33.5q92 0 177.5 -25.5t152 -74.5t108.5 -123t48 -170h-236q-4 47 -26.5 84t-58.5 61.5t-80 38t-93 13.5q-66 0 -123 -22.5t-99 -66.5t-65.5 -112t-23.5 -160t23.5 -159.5t65.5 -111.5t99.5 -66.5t122.5 -22.5 q98 0 173 51t85 146h236q-6 -96 -48 -170t-108.5 -123t-151.5 -75t-178 -26q-119 0 -220 34t-175 103.5t-116 174t-42 245.5z" />
<glyph unicode="d" horiz-adv-x="1273" d="M61 528q0 141 41 247t110 174.5t158 102t185 33.5q238 0 363 -174h20v551h233v-1462h-213l-20 145h-20q-127 -174 -363 -174q-96 0 -185 34t-158 103.5t-110 174t-41 245.5zM295 528q0 -182 90 -269t233 -87q70 0 128.5 22.5t101.5 67.5t66.5 111.5t23.5 154.5 q0 174 -90 265.5t-230 91.5q-143 0 -233 -87.5t-90 -269.5z" />
<glyph unicode="e" horiz-adv-x="1193" d="M61 528q0 141 41 246t114 174.5t171 103t215 33.5q129 0 232.5 -43t173 -123.5t101.5 -196.5q22 -79 22 -172q0 -44 -5 -91h-827q16 -147 98 -219t205 -72q74 0 137.5 30.5t96.5 84.5h251q-45 -145 -174 -228.5t-311 -83.5q-117 0 -216 35t-172 103.5t-113 173t-40 245.5 zM305 639h582q-25 135 -106 192.5t-179 57.5q-111 0 -190.5 -60.5t-106.5 -189.5z" />
<glyph unicode="f" horiz-adv-x="755" d="M41 852v205h184v82q0 98 23.5 165.5t66.5 108.5t102.5 59.5t131.5 18.5q47 0 99 -5t108 -16v-182q-70 8 -124 12h-22q-40 0 -71 -10q-39 -14 -59.5 -50t-20.5 -110v-73h297v-205h-297v-852h-234v852h-184z" />
<glyph unicode="g" horiz-adv-x="1273" d="M61 569q0 131 41 228.5t110 161t158 95t185 31.5q236 0 363 -174h20l20 146h213v-932q0 -156 -49 -260.5t-128 -167t-177 -89t-199 -26.5q-262 0 -386 98q-112 90 -112 236q0 14 1 29h235q-1 -8 -1 -16q0 -67 59 -106q67 -44 202 -44q66 0 124.5 18.5t102.5 57.5 t69.5 100t25.5 147v125h-20q-127 -174 -363 -174q-96 0 -185 32t-158 96.5t-110 160.5t-41 227zM295 569q0 -160 90 -237.5t233 -77.5q70 0 128.5 20.5t101.5 60.5t66.5 98.5t23.5 135.5q0 76 -23.5 135.5t-66.5 99.5t-101.5 60.5t-128.5 20.5q-143 0 -233 -78t-90 -238z " />
<glyph unicode="h" d="M102 0v1462h234v-540h20q59 88 149.5 125.5t203.5 37.5q92 0 173 -27.5t140 -86t94 -150.5t35 -219v-602h-233v569q0 160 -71 236t-206 76q-154 0 -227.5 -87t-77.5 -229v-565h-234z" />
<glyph unicode="i" horiz-adv-x="438" d="M82 1350q0 59 39 98t98 39t98 -39t39 -98t-38.5 -98.5t-98.5 -39.5q-59 0 -98 39.5t-39 98.5zM102 0v1057h234v-1057h-234z" />
<glyph unicode="j" horiz-adv-x="438" d="M82 1350q0 59 39 98t98 39t98 -39t39 -98t-38.5 -98.5t-98.5 -39.5q-59 0 -98 39.5t-39 98.5zM102 -389v1446h234v-1446h-234z" />
<glyph unicode="k" horiz-adv-x="1050" d="M102 0v1462h234v-827h20l441 422h299l-508 -484l514 -573h-311l-435 485h-20v-485h-234z" />
<glyph unicode="l" horiz-adv-x="438" d="M102 0v1462h234v-1462h-234z" />
<glyph unicode="m" horiz-adv-x="1871" d="M102 0v571q0 262 118 388t325 126q135 0 232 -49t151 -155h18q53 106 150.5 155t232.5 49q205 0 322.5 -121.5t117.5 -383.5v-580h-233v580q0 156 -63.5 228.5t-178.5 72.5q-113 0 -177 -72t-64 -225v-584h-234v592q0 154 -63.5 221.5t-177.5 67.5q-113 0 -177.5 -77 t-64.5 -233v-571h-234z" />
<glyph unicode="n" d="M102 0v571q0 260 140.5 387t384.5 127q123 0 220 -28.5t164.5 -88t103.5 -152.5t36 -224v-592h-233v592q0 150 -76 219.5t-215 69.5t-215 -78t-76 -232v-571h-234z" />
<glyph unicode="o" d="M61 528q0 141 42 246t118 174.5t179.5 103t226.5 33.5t227 -33.5t179 -103t117 -174.5t42 -246t-42 -245.5t-117 -174t-179 -103.5t-227 -34t-226.5 34t-179.5 103.5t-118 174t-42 245.5zM295 528q0 -92 24.5 -159.5t68.5 -111.5t104.5 -66.5t134.5 -22.5t134 22.5 t104 66.5t68.5 111.5t24.5 159.5t-24.5 160t-68.5 112t-104.5 66.5t-133.5 22.5q-74 0 -134.5 -22.5t-104.5 -66.5t-68.5 -111.5t-24.5 -160.5z" />
<glyph unicode="p" horiz-adv-x="1273" d="M102 -389v1446h213l21 -146h20q131 174 363 174q96 0 185 -33.5t157.5 -102t109.5 -174t41 -247.5q0 -141 -41 -245.5t-109.5 -174t-157.5 -103.5t-185 -34q-233 0 -363 174h-20v-534h-234zM336 528q0 -176 90 -266t231 -90t231.5 87t90.5 269t-90 269.5t-232 87.5 q-141 0 -231 -90t-90 -267z" />
<glyph unicode="q" horiz-adv-x="1273" d="M61 528q0 141 41 247t110 174.5t158 102t185 33.5q236 0 363 -174h20l20 146h213v-1446h-233v534h-20q-125 -174 -363 -174q-96 0 -185 34t-158 103.5t-110 174t-41 245.5zM295 528q0 -182 90 -269t233 -87q70 0 128.5 22.5t101.5 67.5t66.5 111.5t23.5 154.5 q0 174 -90 265.5t-230 91.5q-143 0 -233 -87.5t-90 -269.5z" />
<glyph unicode="r" horiz-adv-x="745" d="M102 0v1057h213l21 -164h20q57 84 145.5 124t243.5 40v-217q-49 5 -91 5q-142 0 -217 -59q-97 -77 -101 -249v-537h-234z" />
<glyph unicode="s" horiz-adv-x="1077" d="M66 315h233q-1 -6 -1 -12q0 -61 56 -103q60 -46 187 -46q117 0 179 38.5t62 110.5q0 53 -52 76.5t-130 38t-170 27t-170 45t-130 93t-52 169.5q0 74 30.5 135t89 105t143.5 68.5t194 24.5q125 0 214 -26.5t145 -72.5t80 -110q21 -55 22 -115q0 -10 -1 -20h-233q1 7 1 13 q0 58 -47 101q-52 48 -181 48q-111 0 -167.5 -39t-56.5 -108q0 -55 52.5 -80t130 -38t170 -25.5t170 -44t130 -92t52.5 -169.5q0 -147 -120 -241.5t-355 -94.5q-139 0 -233.5 30t-149.5 78q-56 47 -78 109q-16 46 -16 95q0 16 2 32z" />
<glyph unicode="t" horiz-adv-x="837" d="M41 852v205h250v282h233v-282h273v-205h-273v-852h-233v852h-250z" />
<glyph unicode="u" d="M102 465v592h234v-592q0 -150 75.5 -219.5t215.5 -69.5q139 0 215 79t76 230v572h233v-572q0 -262 -140 -388t-384 -126q-121 0 -218.5 28t-165 88t-104.5 153.5t-37 224.5z" />
<glyph unicode="v" horiz-adv-x="1067" d="M-41 1057h256l309 -787h19l311 787h254l-442 -1057h-265z" />
<glyph unicode="w" horiz-adv-x="1634" d="M-41 1057h256l227 -774h19l235 774h242l236 -774h18l227 774h256l-360 -1057h-264l-226 725h-18l-223 -725h-265z" />
<glyph unicode="x" horiz-adv-x="1083" d="M0 0l408 524l-408 533h281l256 -350h20l262 350h264l-405 -522l405 -535h-278l-258 350h-21l-262 -350h-264z" />
<glyph unicode="y" horiz-adv-x="1067" d="M-41 1057h256l309 -787h19l311 787h254l-606 -1446h-254l158 379z" />
<glyph unicode="z" horiz-adv-x="1028" d="M61 0v201l601 635v20h-601v201h906v-201l-598 -635v-20h598v-201h-906z" />
<glyph unicode="{" horiz-adv-x="643" d="M20 623v217h33q82 0 105.5 45t23.5 147v211q0 197 93.5 298t306.5 101h41v-217h-56q-82 0 -112.5 -36.5t-30.5 -124.5v-238q0 -119 -28.5 -187.5t-94.5 -103.5v-8q66 -35 94.5 -103.5t28.5 -187.5v-237q0 -84 29.5 -122t113.5 -38h56v-219h-41q-213 0 -306.5 101.5 t-93.5 297.5v211q0 102 -23.5 147.5t-105.5 45.5h-33z" />
<glyph unicode="|" horiz-adv-x="438" d="M102 -180v1822h234v-1822h-234z" />
<glyph unicode="}" horiz-adv-x="643" d="M20 39h56q82 0 112.5 37t30.5 123v237q0 119 28.5 187.5t94.5 103.5v8q-66 35 -94.5 103.5t-28.5 187.5v238q0 86 -28.5 123.5t-114.5 37.5h-56v217h41q213 0 306.5 -101t93.5 -298v-211q0 -102 23.5 -147t105.5 -45h33v-217h-33q-82 0 -105.5 -45.5t-23.5 -147.5v-211 q0 -197 -93.5 -298t-306.5 -101h-41v219z" />
<glyph unicode="~" horiz-adv-x="1128" d="M41 575q2 98 30.5 172t75 121t103.5 71t115 24q88 0 145 -34t100 -74t79 -73.5t81 -33.5q37 0 70.5 33.5t36.5 115.5h210q-2 -96 -30.5 -169t-74.5 -121t-103.5 -72.5t-114.5 -24.5q-90 0 -147.5 34t-99.5 73.5t-78 73.5t-81 34q-37 0 -70.5 -35t-35.5 -115h-211z" />
<glyph unicode="&#xa2;" horiz-adv-x="1140" d="M61 934q0 123 32 219t90.5 163.5t139 108.5t177.5 58v262h178v-258q82 -8 155.5 -37t131 -78t93.5 -117.5t42 -156.5h-236q-6 76 -59 124t-127 64v-706q74 16 126 64t60 126h236q-6 -88 -42 -157.5t-93.5 -119t-131 -78t-155.5 -36.5v-256h-178v262q-96 14 -177 55 t-139.5 109.5t-90.5 165t-32 219.5zM295 934q0 -145 56.5 -230.5t148.5 -113.5v688q-92 -31 -148.5 -116t-56.5 -228z" />
<glyph unicode="&#xa3;" horiz-adv-x="1261" d="M61 0v209h181v330h-181v184h181v311q0 104 33.5 188.5t96 143.5t151.5 92t198 33q141 0 236.5 -46t151.5 -120t75.5 -168t11.5 -190h-235q8 162 -62 239.5t-180 77.5q-109 0 -172.5 -67.5t-63.5 -184.5v-309h531v-184h-531v-330h654v-209h-1076z" />
<glyph unicode="&#xa5;" horiz-adv-x="1310" d="M-41 1462h293l399 -657h19l403 657h279l-387 -618h206v-174h-315l-80 -127v-37h395v-174h-395v-332h-241v332h-396v174h396v37l-80 127h-316v174h207z" />
<glyph unicode="&#xa8;" horiz-adv-x="937" d="M102 1350q0 59 39 98t99 39q59 0 98 -39t39 -98t-39 -98.5t-98 -39.5t-98.5 39.5t-39.5 98.5zM561 1350q0 59 39 98t98 39t98.5 -39t39.5 -98t-39 -98.5t-99 -39.5q-59 0 -98 39.5t-39 98.5z" />
<glyph unicode="&#xa9;" horiz-adv-x="1585" d="M61 717q0 162 53.5 296t150.5 231t231.5 150.5t296.5 53.5t296 -53.5t231 -150.5t150.5 -231t53.5 -296t-53.5 -296t-150.5 -231.5t-231.5 -150.5t-295.5 -53q-162 0 -296.5 53t-231.5 150.5t-150.5 231.5t-53.5 296zM266 717q0 -121 39 -222.5t107.5 -173t166 -111.5 t214.5 -40t214 40t165.5 111.5t107.5 173t39 222.5t-39 221t-107.5 173t-166 113t-213.5 40q-117 0 -214.5 -40t-166 -113t-107.5 -173t-39 -221zM373 717q0 111 32.5 191.5t91 134t138.5 80t174 26.5q72 0 139.5 -21.5t119.5 -62.5t84 -101.5t36 -138.5h-211 q-4 72 -54.5 111t-123.5 39q-96 0 -156.5 -64.5t-60.5 -193.5t60 -192.5t157 -63.5q74 0 124 39t54 110h211q-4 -78 -36 -139t-84 -102t-119.5 -62.5t-139.5 -21.5q-94 0 -174 26.5t-138.5 79.5t-91 135t-32.5 191z" />
<glyph unicode="&#xab;" horiz-adv-x="1105" d="M20 434v182l537 385v-247l-324 -219v-9l324 -221v-262zM528 434v182l537 385v-247l-324 -219v-9l324 -221v-262z" />
<glyph unicode="&#xad;" horiz-adv-x="550" d="M61 426v205h428v-205h-428z" />
<glyph unicode="&#xae;" horiz-adv-x="864" d="M61 1120q0 82 28 149.5t77 117t116.5 77t149.5 27.5t149.5 -27.5t117 -77t77 -117t27.5 -149.5t-27.5 -149.5t-77 -116.5t-117 -76.5t-149.5 -27.5t-149.5 27.5t-116.5 76.5t-77 116.5t-28 149.5zM143 1120q0 -129 80 -209t209 -80t209 80t80 209t-80 209t-209 80 t-209 -80t-80 -209zM287 944v365h164q74 0 101.5 -31t27.5 -74q0 -33 -14.5 -58.5t-49.5 -37.5v-6q53 -16 68 -88l14 -70h-84l-14 68q-6 31 -20.5 43t-49.5 12h-63v-123h-80zM367 1139h63q68 0 68 51q0 47 -68 47h-63v-98z" />
<glyph unicode="&#xb4;" horiz-adv-x="708" d="M102 1208l201 324h283l-258 -324h-226z" />
<glyph unicode="&#xb8;" horiz-adv-x="587" d="M102 -256q135 -29 190.5 -23.5t55.5 41.5q0 37 -53 37h-127l37 201h145l-20 -76q84 0 130 -42t46 -120q0 -88 -57.5 -134t-157.5 -46q-51 0 -99.5 6t-89.5 19v137z" />
<glyph unicode="&#xbb;" horiz-adv-x="1105" d="M41 43v248l324 219v8l-324 221v262l537 -391v-182zM549 43v248l323 219v8l-323 221v262l536 -391v-182z" />
<glyph unicode="&#xc1;" horiz-adv-x="1351" d="M-41 0l569 1462h295l570 -1462h-275l-127 340h-643l-125 -340h-264zM426 557h487l-233 633h-21zM530 1573l226 323h297l-283 -323h-240z" />
<glyph unicode="&#xc9;" horiz-adv-x="1226" d="M102 0v1462h1053v-217h-811v-405h719v-217h-719v-404h821v-219h-1063zM424 1573l225 323h297l-282 -323h-240z" />
<glyph unicode="&#xcd;" horiz-adv-x="446" d="M102 0v1462h242v-1462h-242zM104 1573l226 323h297l-283 -323h-240z" />
<glyph unicode="&#xd3;" horiz-adv-x="1574" d="M61 731q0 182 50.5 323.5t143.5 239t228 147.5t305 50q168 0 303.5 -50t228.5 -147.5t143 -239t50 -323.5t-50 -324.5t-143 -238.5t-228.5 -146.5t-303.5 -50.5q-170 0 -305 50.5t-228 146.5t-143.5 238.5t-50.5 324.5zM311 731q0 -262 127 -401.5t350 -139.5 t349.5 139.5t126.5 401.5t-126 402.5t-350 140.5q-223 0 -350 -140.5t-127 -402.5zM600 1573l225 323h297l-282 -323h-240z" />
<glyph unicode="&#xda;" horiz-adv-x="1515" d="M102 563v899h242v-897q0 -197 102.5 -286t290.5 -89q193 0 292 89.5t99 285.5v897h242v-899q0 -309 -165 -450.5t-468 -141.5q-150 0 -267.5 35t-199.5 106.5t-125 184.5t-43 266zM559 1573l225 323h297l-282 -323h-240z" />
<glyph unicode="&#xdd;" horiz-adv-x="1310" d="M-41 1462h293l399 -657h19l403 657h279l-576 -919v-543h-241v543zM477 1573l225 323h297l-282 -323h-240z" />
<glyph unicode="&#xe1;" horiz-adv-x="1273" d="M61 528q0 141 41 247t110 174.5t158 102t185 33.5q238 0 363 -174h20l20 146h213v-1057h-213l-20 145h-20q-127 -174 -363 -174q-96 0 -185 34t-158 103.5t-110 174t-41 245.5zM295 528q0 -182 90 -269t233 -87q70 0 128.5 22.5t101.5 67.5t66.5 111.5t23.5 154.5 q0 174 -90 265.5t-230 91.5q-143 0 -233 -87.5t-90 -269.5zM473 1208l201 324h282l-258 -324h-225z" />
<glyph unicode="&#xe9;" horiz-adv-x="1193" d="M61 528q0 141 41 246t114 174.5t171 103t215 33.5q129 0 232.5 -43t173 -123.5t101.5 -196.5t17 -263h-827q16 -147 98 -219t205 -72q74 0 137.5 30.5t96.5 84.5h251q-45 -145 -174 -228.5t-311 -83.5q-117 0 -216 35t-172 103.5t-113 173t-40 245.5zM305 639h582 q-25 135 -106 192.5t-179 57.5q-111 0 -190.5 -60.5t-106.5 -189.5zM442 1208l201 324h283l-258 -324h-226z" />
<glyph unicode="&#xed;" horiz-adv-x="438" d="M102 0v1057h234v-1057h-234zM104 1208l201 324h283l-258 -324h-226z" />
<glyph unicode="&#xf3;" d="M61 528q0 141 42 246t118 174.5t179.5 103t226.5 33.5t227 -33.5t179 -103t117 -174.5t42 -246t-42 -245.5t-117 -174t-179 -103.5t-227 -34t-226.5 34t-179.5 103.5t-118 174t-42 245.5zM295 528q0 -92 24.5 -159.5t68.5 -111.5t104.5 -66.5t134.5 -22.5t134 22.5 t104 66.5t68.5 111.5t24.5 159.5t-24.5 160t-68.5 112t-104.5 66.5t-133.5 22.5q-74 0 -134.5 -22.5t-104.5 -66.5t-68.5 -111.5t-24.5 -160.5zM465 1208l201 324h282l-258 -324h-225z" />
<glyph unicode="&#xfa;" d="M102 465v592h234v-592q0 -150 75.5 -219.5t215.5 -69.5q139 0 215 79t76 230v572h233v-572q0 -262 -140 -388t-384 -126q-121 0 -218.5 28t-165 88t-104.5 153.5t-37 224.5zM467 1208l201 324h282l-258 -324h-225z" />
<glyph unicode="&#xfd;" horiz-adv-x="1067" d="M-41 1057h256l309 -787h19l311 787h254l-606 -1446h-254l158 379zM381 1208l201 324h282l-258 -324h-225z" />
<glyph unicode="&#x10c;" horiz-adv-x="1472" d="M61 731q0 193 54.5 336t149.5 237.5t226.5 140.5t284.5 46q119 0 230.5 -35t199.5 -102.5t143.5 -168t61.5 -231.5h-250q-6 78 -41 138.5t-87 100.5t-118.5 60.5t-138.5 20.5q-100 0 -185 -33t-147.5 -100.5t-97.5 -170t-35 -239.5t35 -238.5t97.5 -169t147.5 -100.5 t185 -33q72 0 138.5 20.5t118.5 60.5t87 100.5t41 138.5h250q-6 -133 -61.5 -233.5t-143.5 -168t-199.5 -102.5t-230.5 -35q-154 0 -285 46t-226 140.5t-149.5 238t-54.5 335.5zM373 1896h237l152 -180l151 180h238l-248 -323h-282z" />
<glyph unicode="&#x10d;" horiz-adv-x="1140" d="M61 528q0 141 42 246t116 174.5t175.5 103t219.5 33.5q92 0 177.5 -25.5t152 -74.5t108.5 -123t48 -170h-236q-4 47 -26.5 84t-58.5 61.5t-80 38t-93 13.5q-66 0 -123 -22.5t-99 -66.5t-65.5 -112t-23.5 -160t23.5 -159.5t65.5 -111.5t99.5 -66.5t122.5 -22.5 q98 0 173 51t85 146h236q-6 -96 -48 -170t-108.5 -123t-151.5 -75t-178 -26q-119 0 -220 34t-175 103.5t-116 174t-42 245.5zM225 1532h224l143 -180l145 180h221l-229 -324h-274z" />
<glyph unicode="&#x10e;" horiz-adv-x="1452" d="M102 0v1462h584q145 0 274.5 -39t224.5 -126t150.5 -226t55.5 -340t-55.5 -340t-150.5 -226t-224.5 -126t-274.5 -39h-584zM262 1896h238l151 -180l152 180h237l-247 -323h-283zM344 219h311q113 0 203 28.5t153.5 90t96.5 159t33 234.5t-33 234.5t-96.5 160t-153.5 91 t-203 28.5h-311v-1026z" />
<glyph unicode="&#x10f;" horiz-adv-x="1437" d="M61 528q0 141 41 247t110 174.5t158 102t185 33.5q238 0 363 -174h20v551h233v-1462h-213l-20 145h-20q-127 -174 -363 -174q-96 0 -185 34t-158 103.5t-110 174t-41 245.5zM295 528q0 -182 90 -269t233 -87q70 0 128.5 22.5t101.5 67.5t66.5 111.5t23.5 154.5 q0 174 -90 265.5t-230 91.5q-143 0 -233 -87.5t-90 -269.5zM1233 1147l39 385h244l-117 -385h-166z" />
<glyph unicode="&#x11a;" horiz-adv-x="1226" d="M102 0v1462h1053v-217h-811v-405h719v-217h-719v-404h821v-219h-1063zM244 1896h237l152 -180l151 180h238l-248 -323h-282z" />
<glyph unicode="&#x11b;" horiz-adv-x="1193" d="M61 528q0 141 41 246t114 174.5t171 103t215 33.5q129 0 232.5 -43t173 -123.5t101.5 -196.5t17 -263h-827q16 -147 98 -219t205 -72q74 0 137.5 30.5t96.5 84.5h251q-45 -145 -174 -228.5t-311 -83.5q-117 0 -216 35t-172 103.5t-113 173t-40 245.5zM233 1532h224 l143 -180l145 180h222l-230 -324h-274zM305 639h582q-25 135 -106 192.5t-179 57.5q-111 0 -190.5 -60.5t-106.5 -189.5z" />
<glyph unicode="&#x147;" horiz-adv-x="1474" d="M102 0v1462h252l758 -1052h21v1052h237v-1462h-252l-758 1053h-20v-1053h-238zM346 1896h238l151 -180l152 180h237l-247 -323h-283z" />
<glyph unicode="&#x148;" d="M102 0v571q0 260 140.5 387t384.5 127q123 0 220 -28.5t164.5 -88t103.5 -152.5t36 -224v-592h-233v592q0 150 -76 219.5t-215 69.5t-215 -78t-76 -232v-571h-234zM260 1532h223l144 -180l145 180h221l-229 -324h-275z" />
<glyph unicode="&#x158;" horiz-adv-x="1376" d="M102 0v1462h613q147 0 247.5 -32.5t161 -90t87 -133.5t26.5 -162q0 -129 -60.5 -230t-205.5 -152v-21q68 -18 113.5 -50t77.5 -76t52.5 -100.5t36.5 -125.5l64 -289h-252l-62 281q-10 57 -29.5 105t-55 83t-92 53.5t-140.5 18.5h-340v-541h-242zM219 1896h238l151 -180 l152 180h237l-247 -323h-283zM344 758h340q164 0 233.5 66.5t69.5 176.5q0 111 -69.5 177.5t-233.5 66.5h-340v-487z" />
<glyph unicode="&#x159;" horiz-adv-x="745" d="M29 1532h223l143 -180l146 180h221l-230 -324h-274zM102 0v1057h213l21 -164h20q57 84 145.5 124t243.5 40v-217q-211 23 -308 -54t-101 -249v-537h-234z" />
<glyph unicode="&#x160;" horiz-adv-x="1320" d="M66 451h241q-16 -133 74 -204t281 -71q176 0 264 60.5t88 158.5q0 63 -40 103.5t-104.5 66t-147.5 42t-170 36t-170 47t-147.5 73.5t-104.5 117.5t-40 178.5q0 94 37 174t108.5 137t177 89t240.5 32q158 0 269.5 -36t180 -100.5t99.5 -152.5t25 -190h-242q4 57 -11.5 108 t-53 88t-102 58.5t-159.5 21.5q-162 0 -242.5 -60.5t-80.5 -158.5q0 -68 40 -108.5t104.5 -66.5t147.5 -41t170 -33.5t170 -45t147.5 -73t104.5 -118t40 -180.5q0 -96 -38 -174.5t-113 -136t-187.5 -89.5t-259.5 -32q-176 0 -294 39t-186.5 104.5t-95.5 152.5t-20 184z M272 1896h238l152 -180l151 180h238l-248 -323h-283z" />
<glyph unicode="&#x161;" horiz-adv-x="1077" d="M66 315h233q-6 -70 54.5 -115.5t187.5 -45.5q117 0 179 38.5t62 110.5q0 53 -52 76.5t-130 38t-170 27t-170 45t-130 93t-52 169.5q0 74 30.5 135t89 105t143.5 68.5t194 24.5q125 0 214 -26.5t145 -72.5t80.5 -109.5t20.5 -135.5h-233q6 66 -46 114t-181 48 q-111 0 -167.5 -39t-56.5 -108q0 -55 52.5 -80t130 -38t170 -25.5t170 -44t130 -92t52.5 -169.5q0 -147 -120 -241.5t-355 -94.5q-139 0 -233.5 30t-150 78t-77 109.5t-14.5 126.5zM174 1532h223l144 -180l145 180h221l-229 -324h-275z" />
<glyph unicode="&#x164;" horiz-adv-x="1198" d="M0 1245v217h1198v-217h-479v-1245h-242v1245h-477zM209 1896h237l152 -180l152 180h237l-248 -323h-282z" />
<glyph unicode="&#x165;" horiz-adv-x="837" d="M41 852v205h250v282h233v-282h273v-205h-273v-852h-233v852h-250zM584 1147l39 385h243l-116 -385h-166z" />
<glyph unicode="&#x16e;" horiz-adv-x="1472" d="M102 563v899h242v-897q0 -197 102.5 -286t290.5 -89q193 0 292 89.5t99 285.5v897h242v-899q0 -309 -165 -450.5t-468 -141.5q-150 0 -267.5 35t-199.5 106.5t-125 184.5t-43 266zM479 1714q0 53 19.5 99.5t54.5 80t81 53t101 19.5t101.5 -19.5t81 -53t54 -80t19.5 -99.5 t-19.5 -99t-54 -80t-80.5 -53.5t-102 -19.5q-55 0 -101 19.5t-81 53.5t-54.5 80t-19.5 99zM635 1714q0 -47 28.5 -75.5t71.5 -28.5q45 0 74 28.5t29 75.5t-29 76t-74 29q-43 0 -71.5 -29t-28.5 -76z" />
<glyph unicode="&#x16f;" d="M102 465v592h234v-592q0 -150 75.5 -219.5t215.5 -69.5q139 0 215 79t76 230v572h233v-572q0 -262 -140 -388t-384 -126q-121 0 -218.5 28t-165 88t-104.5 153.5t-37 224.5zM383 1358q0 51 18.5 95t51 76t76.5 50t98 18q51 0 96 -18t78 -50t51 -76t18 -95t-18 -95 t-51 -76t-78 -50.5t-96 -18.5q-53 0 -97.5 18.5t-77 50.5t-51 76t-18.5 95zM530 1358q0 -43 28 -72t69 -29q43 0 70.5 29t27.5 72q0 45 -27.5 73.5t-70.5 28.5q-41 0 -69 -28.5t-28 -73.5z" />
<glyph unicode="&#x17d;" horiz-adv-x="1267" d="M61 0v219l826 1006v20h-826v217h1145v-217l-823 -1005v-21h823v-219h-1145zM242 1896h237l152 -180l151 180h238l-248 -323h-283z" />
<glyph unicode="&#x17e;" horiz-adv-x="1028" d="M61 0v201l601 635v20h-601v201h906v-201l-598 -635v-20h598v-201h-906zM147 1532h224l143 -180l145 180h222l-230 -324h-274z" />
<glyph unicode="&#x2c6;" horiz-adv-x="937" d="M102 1208l230 324h274l230 -324h-224l-141 183l-145 -183h-224z" />
<glyph unicode="&#x2da;" horiz-adv-x="692" d="M102 1358q0 51 18.5 95t51.5 76t77 50t97 18q51 0 96 -18t78 -50t51.5 -76t18.5 -95t-18.5 -95t-51.5 -76t-78 -50.5t-96 -18.5q-53 0 -97 18.5t-77 50.5t-51.5 76t-18.5 95zM250 1358q0 -43 27.5 -72t68.5 -29q43 0 70.5 29t27.5 72q0 45 -27.5 73.5t-70.5 28.5 q-41 0 -68.5 -28.5t-27.5 -73.5z" />
<glyph unicode="&#x2dc;" horiz-adv-x="972" d="M104 1231q-4 74 15.5 127t51.5 87t74 50t85 16q70 0 116 -23.5t80.5 -51t63 -51t61.5 -23.5t55.5 26.5t22.5 92.5h139q4 -74 -15 -127.5t-51 -87t-74 -50t-85 -16.5q-70 0 -116 23.5t-79.5 51.5t-62.5 51.5t-61 23.5q-33 0 -55.5 -27t-22.5 -92h-142z" />
<glyph unicode="&#x2000;" horiz-adv-x="983" />
<glyph unicode="&#x2001;" horiz-adv-x="1966" />
<glyph unicode="&#x2002;" horiz-adv-x="983" />
<glyph unicode="&#x2003;" horiz-adv-x="1966" />
<glyph unicode="&#x2004;" horiz-adv-x="655" />
<glyph unicode="&#x2005;" horiz-adv-x="491" />
<glyph unicode="&#x2006;" horiz-adv-x="327" />
<glyph unicode="&#x2007;" horiz-adv-x="327" />
<glyph unicode="&#x2008;" horiz-adv-x="245" />
<glyph unicode="&#x2009;" horiz-adv-x="393" />
<glyph unicode="&#x200a;" horiz-adv-x="109" />
<glyph unicode="&#x2010;" horiz-adv-x="550" d="M61 426v205h428v-205h-428z" />
<glyph unicode="&#x2011;" horiz-adv-x="550" d="M61 426v205h428v-205h-428z" />
<glyph unicode="&#x2012;" horiz-adv-x="550" d="M61 426v205h428v-205h-428z" />
<glyph unicode="&#x2013;" horiz-adv-x="1064" d="M61 426v205h943v-205h-943z" />
<glyph unicode="&#x2014;" horiz-adv-x="2068" d="M61 426v205h1946v-205h-1946z" />
<glyph unicode="&#x2018;" horiz-adv-x="440" d="M72 1110l153 537h174l-57 -537h-270z" />
<glyph unicode="&#x2019;" horiz-adv-x="440" d="M41 1110l57 537h271l-154 -537h-174z" />
<glyph unicode="&#x201a;" horiz-adv-x="440" d="M41 -266l57 536h271l-154 -536h-174z" />
<glyph unicode="&#x201c;" horiz-adv-x="792" d="M72 1110l153 537h174l-57 -537h-270zM424 1110l154 537h174l-58 -537h-270z" />
<glyph unicode="&#x201d;" horiz-adv-x="792" d="M41 1110l57 537h271l-154 -537h-174zM393 1110l58 537h270l-154 -537h-174z" />
<glyph unicode="&#x201e;" horiz-adv-x="792" d="M41 -266l57 536h271l-154 -536h-174zM393 -266l58 536h270l-154 -536h-174z" />
<glyph unicode="&#x2026;" horiz-adv-x="1595" d="M61 143q0 70 45.5 114t114.5 44q68 0 113 -44t45 -114t-45 -114.5t-113 -44.5q-70 0 -115 44.5t-45 114.5zM639 143q0 70 45 114t115 44q68 0 112.5 -44t44.5 -114t-45 -114.5t-112 -44.5q-70 0 -115 44.5t-45 114.5zM1217 143q0 70 45 114t114 44q68 0 113 -44t45 -114 t-45 -114.5t-113 -44.5q-70 0 -114.5 44.5t-44.5 114.5z" />
<glyph unicode="&#x202f;" horiz-adv-x="393" />
<glyph unicode="&#x2039;" horiz-adv-x="598" d="M20 434v182l537 385v-247l-324 -219v-9l324 -221v-262z" />
<glyph unicode="&#x203a;" horiz-adv-x="598" d="M41 43v248l324 219v8l-324 221v262l537 -391v-182z" />
<glyph unicode="&#x205f;" horiz-adv-x="491" />
<glyph unicode="&#x20ac;" horiz-adv-x="1462" d="M20 477v174h166q-2 18 -2 38v42v43.5t2 40.5h-166v174h191q59 256 223 379t393 123q109 0 209.5 -35t179 -102.5t129 -168t56.5 -231.5h-252q-6 78 -35 138.5t-74 100.5t-100 60.5t-117 20.5q-123 0 -217 -69.5t-139 -215.5h487l-30 -174h-488q-2 -20 -2 -40.5v-43.5v-42 t2 -38h465l-29 -174h-405q45 -147 138 -217t218 -70q61 0 116.5 20.5t100.5 60.5t74 100.5t35 138.5h252q-6 -133 -56.5 -233.5t-129 -168t-179 -102.5t-209.5 -35q-115 0 -214 31t-179 94.5t-137 157.5t-86 223h-191z" />
<glyph unicode="&#x2122;" horiz-adv-x="1241" d="M20 1337v125h451v-125h-158v-391h-135v391h-158zM547 946v516h207l112 -329h4l113 329h197v-516h-133v334h-5l-114 -334h-125l-117 334h-4v-334h-135z" />
<glyph unicode="&#xe000;" horiz-adv-x="1054" d="M0 0v1055h1055v-1055h-1055z" />
</font>
</defs>
</svg>
