<?xml version="1.0" standalone="no"?>
<!DOCTYPE svg PUBLIC "-//W3C//DTD SVG 1.1//EN" "http://www.w3.org/Graphics/SVG/1.1/DTD/svg11.dtd" >
<svg xmlns="http://www.w3.org/2000/svg">
<metadata></metadata>
<defs>
<font id="NovaticaRegular" horiz-adv-x="1228" >
<font-face units-per-em="2048" ascent="1638" descent="-410" />
<missing-glyph horiz-adv-x="552" />
<glyph horiz-adv-x="0" />
<glyph horiz-adv-x="0" />
<glyph unicode=" "  horiz-adv-x="552" />
<glyph unicode="&#x09;" horiz-adv-x="552" />
<glyph unicode="&#xa0;" horiz-adv-x="552" />
<glyph unicode="!" horiz-adv-x="446" d="M82 127q0 61 40 101t101 40t101.5 -40t40.5 -101t-40 -101t-102 -40q-61 0 -101 40t-40 101zM92 1462h262l-51 -1067h-160z" />
<glyph unicode="&#x22;" horiz-adv-x="772" d="M102 1462h222l-31 -594h-160zM449 1462h221l-31 -594h-160z" />
<glyph unicode="#" horiz-adv-x="1415" d="M0 356v150h264l142 450h-226v150h273l112 356h168l-112 -356h407l113 356h168l-113 -356h219v-150h-266l-141 -450h227v-150h-274l-111 -356h-168l111 356h-408l-111 -356h-168l111 356h-217zM432 506h408l141 450h-408z" />
<glyph unicode="$" horiz-adv-x="1298" d="M63 434h185q-4 -59 12 -112.5t56 -93.5t104.5 -66.5t157.5 -34.5v535q-90 18 -175.5 43.5t-151 71.5t-106.5 117t-41 179q0 80 29 151.5t87.5 128t147.5 92.5t210 44v256h147v-256q129 -10 220 -49t148.5 -101.5t81 -142.5t21.5 -170h-184q2 59 -12.5 111.5t-48 92.5 t-90 66.5t-136.5 36.5v-534q92 -18 184 -41t165 -67t118 -115.5t45 -186.5q0 -80 -30.5 -152.5t-94 -128t-160 -91t-227.5 -44.5v-256h-147v256q-141 8 -240.5 47t-162 100.5t-89.5 142.5t-23 171zM289 1073q0 -57 22.5 -98t61.5 -68.5t91 -46t114 -33.5v506 q-152 -16 -220.5 -89t-68.5 -171zM725 127q168 16 248 90t80 172q0 57 -27 97t-71 68t-103 46t-127 33v-506z" />
<glyph unicode="%" horiz-adv-x="1597" d="M61 1110q0 109 27 181.5t72 117.5t103.5 63.5t123.5 18.5q63 0 122.5 -18.5t103.5 -63.5t71 -117.5t27 -181.5t-27 -181.5t-71 -117.5t-103 -63.5t-123 -18.5q-66 0 -124 18.5t-103 63.5t-72 117.5t-27 181.5zM223 0l963 1462h190l-962 -1462h-191zM225 1110 q0 -68 13.5 -114t36 -73.5t51 -39t61.5 -11.5q31 0 60.5 11.5t51 39t35 73.5t13.5 114t-13.5 113t-35 72.5t-51 40t-60.5 12.5q-33 0 -61.5 -12.5t-51 -40t-36 -72.5t-13.5 -113zM887 352q0 109 26.5 181.5t71.5 117.5t103.5 63.5t123.5 18.5q63 0 123 -18.5t104 -63.5 t70.5 -117.5t26.5 -181.5t-26.5 -181.5t-70.5 -117.5t-103.5 -63.5t-123.5 -18.5q-66 0 -124 18.5t-103 63.5t-71.5 118t-26.5 181zM1051 352q0 -68 13 -113.5t35.5 -73.5t51.5 -39t61 -11q31 0 61 11t51.5 39t34.5 73.5t13 113.5t-13 113t-34.5 72.5t-51.5 40t-61 12.5 q-33 0 -61.5 -12.5t-51 -40t-35.5 -72.5t-13 -113z" />
<glyph unicode="&#x26;" horiz-adv-x="1357" d="M41 352q0 82 24.5 144.5t66.5 111.5t99.5 88t124.5 76v19q-104 88 -149 169.5t-45 174.5q0 82 28.5 148.5t78.5 113.5t118 71.5t145 24.5q76 0 143.5 -24.5t119 -71.5t80 -113.5t28.5 -150.5q0 -127 -75.5 -212t-200.5 -149v-20l323 -287q41 123 41 287h185 q0 -127 -20.5 -229.5t-57.5 -186.5l260 -227l-107 -138l-245 215q-96 -115 -224.5 -165t-269.5 -50q-104 0 -191.5 29t-149.5 79t-96 119.5t-34 153.5zM225 352q0 -96 79 -156.5t208 -60.5q102 0 195.5 40t160.5 132l-403 355q-47 -29 -91 -60t-77 -67.5t-52.5 -82 t-19.5 -100.5zM346 1135q0 -66 35 -129.5t113 -137.5q45 25 86 52.5t71.5 59.5t49 69t18.5 84q0 92 -54.5 144t-132.5 52t-132 -52t-54 -142z" />
<glyph unicode="'" horiz-adv-x="425" d="M102 1462h222l-31 -594h-160z" />
<glyph unicode="(" horiz-adv-x="591" d="M102 725q0 147 24 276t65.5 243t102 212t134.5 186h205q-147 -190 -236.5 -419.5t-89.5 -497.5q0 -258 89 -488.5t237 -416.5h-205q-147 172 -236.5 393t-89.5 512z" />
<glyph unicode=")" horiz-adv-x="591" d="M-41 -180q147 190 236.5 419.5t89.5 497.5q0 258 -89.5 488.5t-236.5 416.5h205q147 -172 236 -393t89 -512q0 -147 -23.5 -276t-65.5 -243t-102 -212t-134 -186h-205z" />
<glyph unicode="*" horiz-adv-x="958" d="M61 1180l58 172l297 -127l-27 325h180l-26 -325l297 127l57 -172l-317 -76l211 -244l-144 -106l-168 278l-168 -278l-147 110l211 242z" />
<glyph unicode="+" horiz-adv-x="1048" d="M61 655v164h371v391h184v-391h371v-164h-371v-389h-184v389h-371z" />
<glyph unicode="," horiz-adv-x="405" d="M41 -266l55 512h234l-148 -512h-141z" />
<glyph unicode="-" horiz-adv-x="522" d="M61 446v164h400v-164h-400z" />
<glyph unicode="." horiz-adv-x="405" d="M61 127q0 61 40 101t102 40q61 0 101 -40t40 -101t-40 -101t-101 -40t-101.5 40t-40.5 101z" />
<glyph unicode="/" horiz-adv-x="735" d="M-61 -180l679 1822h179l-680 -1822h-178z" />
<glyph unicode="0" horiz-adv-x="1116" d="M41 731q0 217 42 362.5t113.5 233.5t166 126t196.5 38t195.5 -38t165 -126t113.5 -233.5t42 -362.5t-42 -362.5t-113.5 -233.5t-164.5 -126t-196 -38q-102 0 -196.5 38t-166 126t-113.5 233.5t-42 362.5zM225 731q0 -170 28 -284.5t74 -183t106.5 -98.5t125.5 -30 q66 0 126 30t106.5 98.5t73 183t26.5 284.5t-26.5 284.5t-73 183.5t-106.5 98.5t-126 29.5t-126 -29.5t-106 -98.5t-74 -183.5t-28 -284.5z" />
<glyph unicode="1" horiz-adv-x="722" d="M41 1235l395 227h185v-1462h-185v1257h-20l-297 -172z" />
<glyph unicode="2" horiz-adv-x="1034" d="M35 967q-10 96 11.5 190t77.5 168t152.5 120t237.5 46q109 0 198 -33t151.5 -92t96 -143t33.5 -189q0 -68 -18.5 -126t-49 -109t-72.5 -96.5t-87 -88.5l-477 -434v-16h702v-164h-954v164l602 569q86 82 128 150.5t42 150.5q0 135 -80 214t-215 79q-66 0 -122 -20.5 t-98 -63.5t-63.5 -111.5t-15.5 -164.5h-180z" />
<glyph unicode="3" horiz-adv-x="1079" d="M43 475h184q-4 -182 83 -261t237 -79q139 0 223 75t84 204q0 63 -23.5 112t-64.5 83t-95.5 52.5t-117.5 18.5h-88v164h72q57 0 108 15t89 46t59.5 75t21.5 101q0 59 -21.5 105.5t-60.5 77t-90 47t-113 16.5q-63 0 -118.5 -17.5t-96.5 -55t-62.5 -98t-16.5 -146.5h-185 q-6 129 30 221t101.5 149.5t154.5 84t191 26.5q80 0 163 -18.5t151.5 -62.5t112.5 -120t44 -190q0 -59 -17 -107.5t-47 -87.5t-69 -66.5t-80 -45.5v-21q47 -14 92.5 -47t81 -79t57 -104.5t21.5 -123.5q0 -117 -44 -202t-114.5 -139t-160.5 -80t-184 -26q-252 0 -378 134.5 t-114 369.5z" />
<glyph unicode="4" horiz-adv-x="1064" d="M0 342v164l676 956h225v-956h143v-164h-143v-342h-184v342h-717zM207 506h510v715h-21l-489 -695v-20z" />
<glyph unicode="5" horiz-adv-x="1075" d="M43 412h184q-4 -59 12.5 -109.5t55.5 -87.5t102.5 -58.5t153.5 -21.5q68 0 122 25.5t94 69.5t61.5 100.5t21.5 118.5q0 63 -17.5 116t-55.5 92t-95 61.5t-137 22.5q-88 0 -165 -33.5t-124 -89.5l-172 44l22 800h832v-164h-670l-16 -501h16q25 25 61 45t75.5 34.5 t81.5 21.5t81 7q96 0 181.5 -29.5t149 -88t100 -143.5t36.5 -195q0 -113 -42 -201t-110.5 -149.5t-155.5 -94.5t-175 -33q-147 0 -246.5 39t-160 101.5t-84 141.5t-17.5 159z" />
<glyph unicode="6" horiz-adv-x="1146" d="M41 686q0 174 35 321.5t103.5 255t171 168t239.5 60.5q125 0 214 -35t146.5 -94t84 -138t26.5 -165h-184q0 51 -15.5 99t-50.5 86t-89 60.5t-132 22.5q-182 0 -273.5 -167t-91.5 -474h17q43 66 92 107t101 63.5t105.5 30.5t104.5 8q98 0 182 -29.5t145.5 -88t97.5 -142.5 t36 -195q0 -100 -38 -186t-107.5 -148.5t-165 -98.5t-211.5 -36q-162 0 -267.5 58.5t-167 157t-85 228.5t-23.5 271zM268 432q0 -59 18.5 -112.5t58.5 -94.5t101.5 -65.5t149.5 -24.5q86 0 148.5 24.5t101.5 65.5t57.5 94.5t18.5 112.5t-18.5 113.5t-57.5 95.5t-101.5 65.5 t-148.5 24.5q-80 0 -141.5 -24.5t-102.5 -65.5t-62.5 -95.5t-21.5 -113.5z" />
<glyph unicode="7" horiz-adv-x="1013" d="M20 1298v164h973v-153l-569 -1309h-203l578 1278v20h-779z" />
<glyph unicode="8" horiz-adv-x="1157" d="M41 418q0 66 22.5 124t60.5 104t86 79t99 47v21q-45 18 -87 45.5t-73.5 66.5t-51 87t-19.5 108q0 115 46 190.5t118.5 119.5t162 62.5t175.5 18.5t174 -18.5t160.5 -62.5t118.5 -120t46 -190q0 -59 -19.5 -107.5t-52 -87.5t-73.5 -66.5t-86 -45.5v-21q51 -14 99 -47 t86 -79t60.5 -104.5t22.5 -123.5q0 -117 -45 -202t-119.5 -139t-172 -80t-199.5 -26q-104 0 -200.5 26t-172.5 80t-121 139t-45 202zM225 408q0 -70 27 -121t74 -85t111.5 -50.5t142.5 -16.5q76 0 140 16.5t111.5 50.5t74 85t26.5 121t-26.5 121t-74 84.5t-111.5 50 t-140 16.5q-78 0 -142.5 -16.5t-111.5 -50t-74 -85t-27 -120.5zM264 1085q0 -123 89 -182t227 -59q135 0 224 59.5t89 181.5q0 123 -89 182.5t-224 59.5q-137 0 -226.5 -59.5t-89.5 -182.5z" />
<glyph unicode="9" horiz-adv-x="1146" d="M41 1022q0 100 38 185t107.5 148.5t164.5 99.5t212 36q162 0 267.5 -58.5t167 -156.5t85 -228t23.5 -272q0 -174 -35 -321.5t-103.5 -255t-171 -168t-239.5 -60.5q-125 0 -214 35t-146.5 94.5t-84 138t-26.5 164.5h184q0 -51 15.5 -99t50.5 -86t89 -60.5t132 -22.5 q182 0 273.5 167t91.5 474h-17q-43 -66 -92 -106.5t-101.5 -63t-105.5 -31t-104 -8.5q-98 0 -182 30t-145.5 88t-97.5 142t-36 195zM225 1030q0 -59 18.5 -113.5t57.5 -95.5t101.5 -65.5t148.5 -24.5q80 0 141.5 24.5t102.5 65.5t62.5 95.5t21.5 113.5t-18.5 112.5 t-58.5 94.5t-101.5 65.5t-149.5 24.5q-86 0 -148.5 -24.5t-101.5 -65.5t-57.5 -94t-18.5 -113z" />
<glyph unicode=":" horiz-adv-x="405" d="M61 127q0 61 40 101t102 40q61 0 101 -40t40 -101t-40 -101t-101 -40t-101.5 40t-40.5 101zM61 930q0 61 40 101t102 40q61 0 101 -40t40 -101t-40 -101.5t-101 -40.5t-101.5 40.5t-40.5 101.5z" />
<glyph unicode=";" horiz-adv-x="405" d="M41 -266l55 512h234l-148 -512h-141zM61 930q0 61 40 101t102 40q61 0 101 -40t40 -101t-40 -101.5t-101 -40.5t-101.5 40.5t-40.5 101.5z" />
<glyph unicode="&#x3c;" horiz-adv-x="1048" d="M61 631v215l926 328v-197l-706 -229v-9l706 -231v-203z" />
<glyph unicode="=" horiz-adv-x="1048" d="M61 471v164h926v-164h-926zM61 840v164h926v-164h-926z" />
<glyph unicode="&#x3e;" horiz-adv-x="1048" d="M61 303v197l707 229v8l-707 232v202l926 -325v-215z" />
<glyph unicode="?" horiz-adv-x="1126" d="M86 987q-10 92 10.5 182.5t76.5 162t149.5 115.5t232.5 44q236 0 362.5 -113.5t126.5 -322.5q0 -68 -24.5 -136.5t-75.5 -128t-128 -106.5t-181 -72l-10 -217h-160l-16 346q109 6 186.5 35t127.5 72t73.5 97t23.5 110q0 127 -76.5 199.5t-226.5 72.5q-68 0 -124 -20.5 t-95 -61.5t-58.5 -105.5t-13.5 -152.5h-180zM403 127q0 61 40 101t102 40q61 0 101 -40t40 -101t-40 -101t-101 -40t-101.5 40t-40.5 101z" />
<glyph unicode="@" horiz-adv-x="2265" d="M123 438q0 233 86 427t234.5 333t348 216t427.5 77q209 0 378.5 -61.5t290.5 -174t187.5 -269.5t66.5 -349q0 -164 -43 -279.5t-110.5 -189.5t-150.5 -108.5t-163 -34.5q-96 0 -169.5 45t-86.5 135h-20q-35 -47 -81 -81t-99.5 -55.5t-109.5 -32.5t-110 -11 q-88 0 -160.5 27.5t-123.5 81.5t-80 132t-29 176q0 123 38 228.5t106.5 184.5t163 123t206.5 44q213 0 314 -158h18l35 133h168l-78 -618q-8 -63 -3 -102t21.5 -60.5t42 -29t56.5 -7.5q49 0 96 26.5t85 83t60.5 142.5t22.5 205q0 156 -53.5 283t-149.5 217t-233.5 140 t-302.5 50q-188 0 -354.5 -65.5t-290 -182t-195.5 -280.5t-72 -361q0 -154 53.5 -281.5t150.5 -219t232.5 -141.5t300.5 -50q258 0 502 129l80 -147q-127 -72 -271.5 -109t-310.5 -37q-207 0 -376.5 62.5t-290.5 175t-187.5 270.5t-66.5 348zM795 461q0 -129 66.5 -201 t201.5 -72q78 0 142.5 29t111.5 81t72.5 127t25.5 165q0 121 -66.5 195.5t-201.5 74.5q-84 0 -148.5 -29.5t-110.5 -83t-69.5 -127t-23.5 -159.5z" />
<glyph unicode="A" horiz-adv-x="1323" d="M-41 0l594 1462h215l596 -1462h-207l-145 367h-709l-145 -367h-199zM369 530h577l-278 703h-21z" />
<glyph unicode="B" horiz-adv-x="1320" d="M102 0v1462h666q123 0 209 -29.5t139 -81t78 -120t25 -144.5q0 -115 -52.5 -204.5t-175.5 -134.5v-21q145 -41 207 -136t62 -216q0 -78 -25 -146.5t-78 -119t-139 -80t-209 -29.5h-707zM287 164h522q74 0 124 19.5t82 52t46 76.5t14 96q0 49 -14 93t-46 76.5t-82 52 t-124 19.5h-522v-485zM287 813h481q74 0 124 19.5t82 52.5t46 77t14 93t-14 94t-46 78t-82 52t-124 19h-481v-485z" />
<glyph unicode="C" horiz-adv-x="1443" d="M61 729q0 193 53.5 336t146.5 238.5t221 141.5t276 46q119 0 227.5 -34t192.5 -98.5t138 -158.5t66 -213h-186q-12 80 -51 143.5t-97.5 107.5t-133 66.5t-156.5 22.5q-109 0 -203 -37t-162.5 -110.5t-107.5 -186t-39 -264.5t39 -263.5t107.5 -185t162.5 -109.5t203 -36 q82 0 156.5 22.5t133 65.5t97.5 106.5t51 145.5h186q-12 -121 -66 -214t-138 -157.5t-192.5 -98.5t-227.5 -34q-147 0 -275.5 46t-221.5 140.5t-146.5 237t-53.5 334.5z" />
<glyph unicode="D" horiz-adv-x="1423" d="M102 0v1462h555q145 0 274.5 -39t224.5 -126t150.5 -226t55.5 -340t-55.5 -340t-150.5 -226t-224 -126t-275 -39h-555zM287 164h370q106 0 201.5 29.5t166.5 97t112 176t41 264.5t-41 264.5t-112 176t-166 97t-202 29.5h-370v-1134z" />
<glyph unicode="E" horiz-adv-x="1198" d="M102 0v1462h1024v-164h-839v-485h747v-164h-747v-485h850v-164h-1035z" />
<glyph unicode="F" horiz-adv-x="1126" d="M102 0v1462h983v-164h-798v-546h706v-164h-706v-588h-185z" />
<glyph unicode="G" horiz-adv-x="1505" d="M61 729q0 193 53.5 336t146.5 238.5t221 141.5t276 46q119 0 227.5 -34t192.5 -98.5t138 -158.5t66 -213h-186q-12 80 -51 143.5t-97.5 107.5t-133 66.5t-156.5 22.5q-109 0 -203 -37t-162.5 -110.5t-107.5 -186t-39 -264.5t39 -263.5t107.5 -185t162.5 -109.5t203 -36 q82 0 164 25.5t148.5 79t107.5 134.5t41 191h-455v164h639v-729h-164l-20 176h-21q-49 -61 -104.5 -100t-114.5 -62.5t-120.5 -33t-121.5 -9.5q-141 0 -264 46t-214 140.5t-144.5 237t-53.5 334.5z" />
<glyph unicode="H" horiz-adv-x="1443" d="M102 0v1462h185v-649h870v649h184v-1462h-184v649h-870v-649h-185z" />
<glyph unicode="I" horiz-adv-x="389" d="M102 0v1462h185v-1462h-185z" />
<glyph unicode="J" horiz-adv-x="1097" d="M23 455h184v-16q0 -139 65 -219q70 -85 228 -85q160 0 235.5 97.5t75.5 308.5v921h184v-921q0 -297 -119.5 -433.5t-375.5 -136.5q-127 0 -219.5 35t-150.5 97.5t-85 151.5q-23 75 -23 166q0 17 1 34z" />
<glyph unicode="K" horiz-adv-x="1251" d="M102 0v1462h185v-659h20l705 659h239l-757 -708l798 -754h-270l-715 674h-20v-674h-185z" />
<glyph unicode="L" horiz-adv-x="1095" d="M102 0v1462h185v-1298h788v-164h-973z" />
<glyph unicode="M" horiz-adv-x="1757" d="M102 0v1462h287l490 -1233h20l490 1233h266v-1462h-185v1157h-20l-471 -1157h-201l-471 1157h-20v-1157h-185z" />
<glyph unicode="N" horiz-adv-x="1443" d="M102 0v1462h195l840 -1151h20v1151h184v-1462h-194l-840 1151h-20v-1151h-185z" />
<glyph unicode="O" horiz-adv-x="1546" d="M61 731q0 182 49.5 323.5t141.5 239t224 147.5t298 50t298 -50t223 -147.5t140.5 -239t49.5 -323.5t-49.5 -324.5t-140.5 -238.5t-223 -146.5t-298 -50.5t-298 50.5t-224 146.5t-141.5 238.5t-49.5 324.5zM246 731q0 -289 140 -442.5t388 -153.5t387 153.5t139 442.5 t-139 442.5t-387 153.5t-388 -153.5t-140 -442.5z" />
<glyph unicode="P" horiz-adv-x="1265" d="M102 0v1462h555q154 0 259.5 -36.5t169 -100t91 -149.5t27.5 -183q0 -96 -27.5 -180t-91 -148.5t-169 -101.5t-259.5 -37h-370v-526h-185zM287 690h370q102 0 172 24.5t112 65.5t60.5 96.5t18.5 116.5q0 63 -18.5 118.5t-60.5 96.5t-111.5 65.5t-172.5 24.5h-370v-608z " />
<glyph unicode="Q" horiz-adv-x="1546" d="M61 731q0 182 49.5 323.5t141.5 239t224 147.5t298 50t298 -50t223 -147.5t140.5 -239t49.5 -323.5q0 -252 -90 -412.5t-256 -246.5v-21l387 -223l-92 -158l-537 310q-31 -4 -60.5 -6.5t-62.5 -2.5q-166 0 -298 50.5t-224 146.5t-141.5 238.5t-49.5 324.5zM246 731 q0 -289 140 -442.5t388 -153.5t387 153.5t139 442.5t-139 442.5t-387 153.5t-388 -153.5t-140 -442.5z" />
<glyph unicode="R" horiz-adv-x="1349" d="M102 0v1462h572q147 0 248.5 -32.5t163 -89t88 -132t26.5 -161.5q0 -127 -62.5 -229.5t-213.5 -151.5v-21q74 -18 123 -52t81.5 -78t53 -99.5t37.5 -118.5l69 -297h-188l-68 287q-10 55 -29.5 106t-57.5 90t-102.5 62.5t-162.5 23.5h-393v-569h-185zM287 733h387 q96 0 161.5 22.5t105.5 61.5t57.5 90t17.5 109q0 57 -17.5 109.5t-57.5 90t-105.5 60t-161.5 22.5h-387v-565z" />
<glyph unicode="S" horiz-adv-x="1298" d="M63 434h185q-1 -11 0 -21q0 -54 16 -101q20 -56 68.5 -98t127.5 -65.5t189 -23.5q104 0 180 20.5t125.5 56.5t74 84t24.5 103q0 74 -41 119t-107.5 72.5t-151.5 45t-174.5 36t-174.5 45t-151.5 71.5t-107.5 116t-41 179q0 86 33 162t100.5 133t170 90t241.5 33 q152 0 257.5 -37t171.5 -100q66 -62 94 -147q25 -75 24 -158v-23h-184v13q0 58 -16 110q-18 57 -60.5 99t-113 65.5t-173.5 23.5q-94 0 -161.5 -20.5t-111.5 -56t-65.5 -84t-21.5 -103.5q0 -78 41 -126t107.5 -76.5t151.5 -45t174 -34t174 -41t151.5 -67.5t107.5 -114.5 t41 -179.5q0 -86 -35 -161.5t-107.5 -133t-183 -90.5t-262.5 -33q-162 0 -275.5 36t-184 99.5t-100.5 147.5q-26 74 -26 158v22z" />
<glyph unicode="T" horiz-adv-x="1167" d="M0 1298v164h1167v-164h-491v-1298h-184v1298h-492z" />
<glyph unicode="U" horiz-adv-x="1443" d="M102 549v913h185v-913q0 -215 114.5 -314.5t321.5 -99.5t320.5 99.5t113.5 314.5v913h184v-913q0 -301 -160.5 -439.5t-457.5 -138.5q-147 0 -262 34t-195 104.5t-122 179t-42 260.5z" />
<glyph unicode="V" horiz-adv-x="1323" d="M-41 1462h207l489 -1233h21l489 1233h199l-594 -1462h-215z" />
<glyph unicode="W" horiz-adv-x="1882" d="M-41 1462h207l326 -1171h20l326 1171h215l325 -1171h21l325 1171h199l-430 -1462h-215l-326 1171h-20l-326 -1171h-215z" />
<glyph unicode="X" horiz-adv-x="1361" d="M0 0l567 729l-567 733h233l443 -583h16l447 583h223l-567 -727l567 -735h-234l-442 584h-16l-447 -584h-223z" />
<glyph unicode="Y" horiz-adv-x="1282" d="M-41 1462h227l451 -719h16l451 719h219l-590 -919v-543h-184v543z" />
<glyph unicode="Z" horiz-adv-x="1239" d="M61 0v164l881 1114v20h-881v164h1117v-164l-881 -1114v-20h881v-164h-1117z" />
<glyph unicode="[" horiz-adv-x="555" d="M102 -180v1822h433v-163h-248v-1495h248v-164h-433z" />
<glyph unicode="\" horiz-adv-x="735" d="M-61 1642h178l680 -1822h-179z" />
<glyph unicode="]" horiz-adv-x="555" d="M20 -16h248v1495h-248v163h433v-1822h-433v164z" />
<glyph unicode="^" horiz-adv-x="1026" d="M-39 406l447 1056h215l446 -1056h-203l-342 847h-18l-342 -847h-203z" />
<glyph unicode="_" horiz-adv-x="1064" d="M10 -29h1045v-164h-1045v164z" />
<glyph unicode="`" horiz-adv-x="614" d="M102 1532h226l184 -324h-184z" />
<glyph unicode="a" horiz-adv-x="1249" d="M61 528q0 141 41 246t111 174.5t161 103t191 33.5q117 0 212 -45t165 -139h21l20 156h164v-1057h-164l-20 156h-21q-70 -92 -165 -138.5t-212 -46.5q-100 0 -191 34t-161 103.5t-111 174t-41 245.5zM246 528q0 -201 100 -297t260 -96q78 0 143.5 23.5t112.5 73t74 123 t27 173.5t-27 174t-74 123t-112.5 73t-143.5 24q-160 0 -260 -96.5t-100 -297.5z" />
<glyph unicode="b" horiz-adv-x="1249" d="M102 0v1462h185v-561h20q70 94 165 139t212 45q100 0 191.5 -33.5t161 -103t110.5 -174t41 -246.5q0 -141 -41 -245.5t-110.5 -174t-161 -103.5t-191.5 -34q-117 0 -212 46t-165 139h-20l-21 -156h-164zM287 528q0 -100 26.5 -173.5t73.5 -123t112.5 -73t143.5 -23.5 q160 0 260.5 96t100.5 297t-100.5 297.5t-260.5 96.5q-78 0 -143.5 -24t-112.5 -73t-73.5 -122.5t-26.5 -174.5z" />
<glyph unicode="c" horiz-adv-x="1107" d="M61 528q0 141 41 246t112 174.5t168 103t212 33.5q90 0 171 -24.5t145.5 -71.5t105.5 -115.5t51 -156.5h-186q-6 47 -33 85t-67 64.5t-89 41t-100 14.5q-74 0 -137.5 -24t-109.5 -73t-72.5 -123t-26.5 -174t26.5 -173.5t72.5 -123t109.5 -73t137.5 -23.5q51 0 100 14.5 t88 40t65.5 63.5t35.5 87h186q-10 -88 -51 -156.5t-105.5 -116t-145.5 -72t-171 -24.5q-115 0 -212 34t-168 103.5t-112 174t-41 245.5z" />
<glyph unicode="d" horiz-adv-x="1249" d="M61 528q0 141 41 246t111 174.5t161 103t191 33.5q117 0 212 -45t165 -139h21v561h184v-1462h-164l-20 156h-21q-70 -92 -165 -138.5t-212 -46.5q-100 0 -191 34t-161 103.5t-111 174t-41 245.5zM246 528q0 -201 100 -297t260 -96q78 0 143.5 23.5t112.5 73t74 123 t27 173.5t-27 174t-74 123t-112.5 73t-143.5 24q-160 0 -260 -96.5t-100 -297.5z" />
<glyph unicode="e" horiz-adv-x="1169" d="M61 528q0 141 41 246t112 174.5t168 103t212 33.5q123 0 221 -42t166 -121q69 -78 101 -193q25 -88 24 -195q0 -33 -2 -67h-856q16 -170 111.5 -251t232.5 -81q84 0 157.5 36t108.5 103h197q-20 -74 -64.5 -130t-106 -94t-136 -58.5t-154.5 -20.5q-115 0 -212 34 t-168 103.5t-112 174t-41 245.5zM254 631h659q-12 80 -42.5 135t-74.5 90t-96.5 50.5t-107.5 15.5q-129 0 -220 -72t-118 -219z" />
<glyph unicode="f" horiz-adv-x="727" d="M41 893v164h184v82q0 98 22.5 165.5t63.5 108.5t96.5 59.5t122.5 18.5q47 0 95.5 -3t101.5 -11v-146q-74 6 -132 11h-24q-43 0 -75 -12q-41 -17 -62.5 -61t-23.5 -130v-82h317v-164h-317v-893h-185v893h-184z" />
<glyph unicode="g" horiz-adv-x="1249" d="M61 569q0 131 41 227.5t111 161t161 96t191 31.5q117 0 212 -46t165 -138h21l20 156h164v-944q0 -147 -48 -249t-125 -164t-173 -90t-195 -28q-254 0 -376 94q-112 88 -112 230q0 12 1 24h186q-1 -8 -1 -16q0 -75 68 -119q74 -49 234 -49q63 0 128 17.5t115 58.5 t82 109.5t32 170.5v136h-21q-70 -94 -165 -139.5t-212 -45.5q-100 0 -191 32t-161 96.5t-111 160.5t-41 227zM246 569q0 -178 100 -265t260 -87q78 0 143.5 21.5t112.5 65.5t74 110.5t27 154.5t-27 155t-74 111t-112.5 65.5t-143.5 21.5q-160 0 -260 -87.5t-100 -265.5z" />
<glyph unicode="h" d="M102 0v1462h185v-542h20q59 86 151.5 125.5t207.5 39.5q215 0 337.5 -125.5t122.5 -388.5v-571h-184v571q0 180 -87 265.5t-241 85.5q-150 0 -236.5 -74t-90.5 -240v-608h-185z" />
<glyph unicode="i" horiz-adv-x="389" d="M82 1350q0 49 31.5 80.5t81.5 31.5q49 0 80.5 -31.5t31.5 -80.5t-31.5 -81t-80.5 -32t-81 32t-32 81zM102 0v1057h185v-1057h-185z" />
<glyph unicode="j" horiz-adv-x="389" d="M82 1350q0 49 31.5 80.5t81.5 31.5q49 0 80.5 -31.5t31.5 -80.5t-31.5 -81t-80.5 -32t-81 32t-32 81zM102 -389v1446h185v-1446h-185z" />
<glyph unicode="k" horiz-adv-x="1021" d="M102 0v1462h185v-837h20l508 432h252l-567 -490l573 -567h-264l-502 496h-20v-496h-185z" />
<glyph unicode="l" horiz-adv-x="389" d="M102 0v1462h185v-1462h-185z" />
<glyph unicode="m" horiz-adv-x="1822" d="M102 0v571q0 262 114 388t314 126q129 0 223.5 -48t147.5 -152h19q51 104 146 152t226 48q201 0 314.5 -125.5t113.5 -388.5v-571h-184v571q0 180 -70.5 265.5t-195.5 85.5t-195.5 -77t-70.5 -253v-592h-185v592q0 176 -70.5 253t-195.5 77t-195.5 -85t-70.5 -266v-571 h-185z" />
<glyph unicode="n" d="M102 0v571q0 260 137 387t375 127q119 0 214.5 -28.5t161 -88t101 -152.5t35.5 -224v-592h-184v592q0 176 -87 253t-241 77t-240.5 -85t-86.5 -266v-571h-185z" />
<glyph unicode="o" d="M61 528q0 141 41 246t115 174.5t175.5 103t221.5 33.5q121 0 222.5 -33.5t175 -103t114.5 -174.5t41 -246t-41 -245.5t-114.5 -174t-175 -103.5t-222.5 -34t-222 34t-175 103.5t-115 174t-41 245.5zM246 528q0 -100 26.5 -173.5t75.5 -123t116.5 -73t147.5 -23.5 q82 0 150.5 23.5t118 73t76 123t26.5 173.5t-26.5 174t-76 123t-118 73t-150.5 24q-80 0 -147.5 -24t-116.5 -73t-75.5 -122.5t-26.5 -174.5z" />
<glyph unicode="p" horiz-adv-x="1249" d="M102 -389v1446h164l21 -156h20q70 92 165 138t212 46q100 0 191.5 -33.5t161 -103t110.5 -174t41 -246.5q0 -141 -41 -245.5t-110.5 -174t-161 -103.5t-191.5 -34q-117 0 -212 45t-165 140h-20v-545h-185zM287 528q0 -100 26.5 -173.5t73.5 -123t112.5 -73t143.5 -23.5 q160 0 260.5 96t100.5 297t-100.5 297.5t-260.5 96.5q-78 0 -143.5 -24t-112.5 -73t-73.5 -122.5t-26.5 -174.5z" />
<glyph unicode="q" horiz-adv-x="1249" d="M61 528q0 141 41 246t111 174.5t161 103t191 33.5q117 0 212 -46t165 -138h21l20 156h164v-1446h-184v545h-21q-70 -94 -165 -139.5t-212 -45.5q-100 0 -191 34t-161 103.5t-111 174t-41 245.5zM246 528q0 -201 100 -297t260 -96q78 0 143.5 23.5t112.5 73t74 123 t27 173.5t-27 174t-74 123t-112.5 73t-143.5 24q-160 0 -260 -96.5t-100 -297.5z" />
<glyph unicode="r" horiz-adv-x="716" d="M102 0v1057h164l21 -166h20q59 86 154.5 126t255.5 40v-172q-50 5 -94 5q-155 0 -233 -64q-100 -82 -103 -246v-580h-185z" />
<glyph unicode="s" horiz-adv-x="1054" d="M63 313h185q0 -5 -1 -9q-1 -76 61 -126q64 -53 220 -53q145 0 213 48t68 126q0 59 -53.5 87t-134 43t-175 27.5t-175.5 44t-134 90t-53 167.5q0 70 27.5 130t83 104t139.5 68.5t194 24.5q119 0 205 -27.5t140.5 -73.5t78.5 -108q22 -58 21 -122v-11h-185v10q0 75 -57 125 q-61 54 -203 54q-131 0 -195.5 -48t-64.5 -126q0 -63 53.5 -91t134.5 -42.5t175 -26.5t175 -43t134 -89t53 -167q0 -70 -27.5 -130t-85 -104.5t-145.5 -69t-207 -24.5q-127 0 -216 28t-145 74q-56 47 -82 109q-23 54 -23 113q0 9 1 18z" />
<glyph unicode="t" horiz-adv-x="806" d="M41 893v164h260v282h184v-282h281v-164h-281v-893h-184v893h-260z" />
<glyph unicode="u" d="M102 465v592h185v-592q0 -176 87 -253t240 -77q154 0 241 85t87 265v572h184v-572q0 -262 -137 -388t-375 -126q-119 0 -214 28t-160.5 88t-101.5 153.5t-36 224.5z" />
<glyph unicode="v" horiz-adv-x="1026" d="M-41 1057h203l342 -848h18l342 848h203l-446 -1057h-215z" />
<glyph unicode="w" horiz-adv-x="1603" d="M-41 1057h203l260 -828h18l260 828h203l260 -828h19l260 828h203l-365 -1057h-215l-254 799h-18l-254 -799h-215z" />
<glyph unicode="x" horiz-adv-x="1054" d="M0 0l418 526l-418 531h225l295 -385h21l299 385h215l-418 -525l418 -532h-226l-294 385h-21l-299 -385h-215z" />
<glyph unicode="y" horiz-adv-x="1026" d="M-41 1057h203l342 -848h18l342 848h203l-610 -1446h-203l158 375z" />
<glyph unicode="z" horiz-adv-x="1003" d="M61 0v164l644 708v21h-644v164h881v-164l-643 -709v-20h643v-164h-881z" />
<glyph unicode="{" horiz-adv-x="614" d="M20 649v164h33q82 0 105.5 48t23.5 165v238q0 98 19.5 169.5t63.5 117.5t117 68.5t179 22.5h33v-163h-37q-113 0 -151.5 -49.5t-38.5 -165.5v-238q0 -119 -29 -187.5t-94 -103.5v-8q66 -35 94.5 -103.5t28.5 -187.5v-237q0 -117 38.5 -166t151.5 -49h37v-164h-33 q-106 0 -179 22.5t-117 68.5t-63.5 117.5t-19.5 170.5v237q0 117 -23.5 165t-105.5 48h-33z" />
<glyph unicode="|" horiz-adv-x="389" d="M102 -180v1822h185v-1822h-185z" />
<glyph unicode="}" horiz-adv-x="614" d="M20 -16h37q113 0 152 49t39 166v237q0 119 28.5 187.5t94.5 103.5v8q-66 35 -94.5 103.5t-28.5 187.5v238q0 117 -39 166t-152 49h-37v163h33q106 0 179 -22.5t117 -68.5t63.5 -117.5t19.5 -169.5v-238q0 -117 23.5 -165t105.5 -48h33v-164h-33q-82 0 -105.5 -48 t-23.5 -165v-237q0 -98 -19.5 -170t-63.5 -118t-116.5 -68.5t-179.5 -22.5h-33v164z" />
<glyph unicode="~" horiz-adv-x="1114" d="M41 612q2 88 28.5 153.5t67.5 109t94.5 63.5t110.5 20q88 0 148.5 -39.5t109.5 -87t92 -87t96 -39.5q43 0 79 35.5t38 121.5h168q-2 -88 -28.5 -153.5t-67.5 -108.5t-94.5 -63.5t-110.5 -20.5q-90 0 -151.5 40t-109.5 87t-90 87t-95 40q-43 0 -79 -36t-38 -122h-168z" />
<glyph unicode="&#xa2;" horiz-adv-x="1107" d="M61 934q0 125 32 221t90.5 165t137 109.5t175.5 55.5v260h147v-256q82 -6 154.5 -34t129 -75t93.5 -111.5t47 -146.5h-186q-12 84 -81 136.5t-157 64.5v-780q88 12 155.5 64t82.5 138h186q-10 -82 -47 -147.5t-93.5 -111.5t-129 -73.5t-154.5 -33.5v-256h-147v260 q-96 12 -175 53t-137.5 109.5t-90.5 165t-32 223.5zM246 934q0 -166 69.5 -260t180.5 -123v764q-111 -29 -180.5 -122t-69.5 -259z" />
<glyph unicode="&#xa3;" horiz-adv-x="1204" d="M61 0v164h181v395h-181v143h181v332q0 104 31.5 188.5t90 143.5t141.5 92t185 33q131 0 221 -46t143.5 -120t73 -168t11.5 -190h-181q4 96 -15 164.5t-56 111.5t-88 63.5t-109 20.5q-121 0 -192.5 -79t-71.5 -214v-332h530v-143h-530v-395h653v-164h-1018z" />
<glyph unicode="&#xa5;" horiz-adv-x="1282" d="M-41 1462h227l451 -719h16l451 719h219l-410 -639h215v-143h-307l-88 -137v-47h395v-144h-395v-352h-184v352h-395v144h395v47l-88 137h-307v143h215z" />
<glyph unicode="&#xa8;" horiz-adv-x="839" d="M102 1350q0 49 32 80.5t81 31.5t81 -31.5t32 -80.5t-32 -81t-81 -32t-81 32t-32 81zM512 1350q0 49 31.5 80.5t81.5 31.5q49 0 80.5 -31.5t31.5 -80.5t-31.5 -81t-80.5 -32t-81 32t-32 81z" />
<glyph unicode="&#xa9;" horiz-adv-x="1585" d="M61 717q0 162 53.5 296t150.5 231t231.5 150.5t296.5 53.5t296 -53.5t231 -150.5t150.5 -231t53.5 -296t-53.5 -296t-150.5 -231.5t-231.5 -150.5t-295.5 -53q-162 0 -296.5 53t-231.5 150.5t-150.5 231.5t-53.5 296zM246 717q0 -127 40 -230.5t111.5 -179.5t173 -116.5 t222.5 -40.5t221 40.5t173 116.5t112.5 179.5t39.5 230.5q0 125 -39.5 229.5t-112.5 180t-173.5 116.5t-220.5 41q-121 0 -222.5 -41t-173 -116.5t-111.5 -180t-40 -229.5zM360 717q0 113 34 196.5t92.5 139t139.5 83t177 27.5q74 0 141.5 -20.5t120.5 -60.5t87 -99t38 -135 h-189q-6 76 -66.5 117t-137.5 41q-106 0 -178 -71t-72 -218t71.5 -218t178.5 -71q78 0 138 41t66 117h189q-4 -78 -38 -136.5t-87 -98.5t-120.5 -60.5t-141.5 -20.5q-96 0 -177 28t-139.5 83t-92.5 139t-34 197z" />
<glyph unicode="&#xab;" horiz-adv-x="1064" d="M20 455v141l517 385v-207l-334 -239v-9l334 -241v-222zM508 455v141l516 385v-207l-334 -239v-9l334 -241v-222z" />
<glyph unicode="&#xad;" horiz-adv-x="522" d="M61 446v164h400v-164h-400z" />
<glyph unicode="&#xae;" horiz-adv-x="864" d="M61 1120q0 82 28 149.5t77 117t116.5 77t149.5 27.5t149.5 -27.5t117 -77t77 -117t27.5 -149.5t-27.5 -149.5t-77 -116.5t-117 -76.5t-149.5 -27.5t-149.5 27.5t-116.5 76.5t-77 116.5t-28 149.5zM143 1120q0 -129 80 -209t209 -80t209 80t80 209t-80 209t-209 80 t-209 -80t-80 -209zM287 944v365h164q74 0 101.5 -31t27.5 -74q0 -33 -14.5 -58.5t-49.5 -37.5v-6q53 -16 68 -88l14 -70h-84l-14 68q-6 31 -20.5 43t-49.5 12h-63v-123h-80zM367 1139h63q68 0 68 51q0 47 -68 47h-63v-98z" />
<glyph unicode="&#xb4;" horiz-adv-x="655" d="M102 1208l185 324h225l-225 -324h-185z" />
<glyph unicode="&#xb8;" horiz-adv-x="587" d="M102 -276q135 -29 190.5 -23t55.5 51q0 29 -18.5 38t-40.5 9h-111l37 201h115l-21 -86q84 0 130 -39t46 -117q0 -80 -52 -128t-152 -48q-98 0 -179 25v117z" />
<glyph unicode="&#xbb;" horiz-adv-x="1064" d="M41 63v207l334 240v8l-334 242v221l516 -391v-141zM528 63v207l334 240v8l-334 242v221l516 -391v-141z" />
<glyph unicode="&#xc1;" horiz-adv-x="1323" d="M-41 0l594 1462h215l596 -1462h-207l-145 367h-709l-145 -367h-199zM369 530h577l-278 703h-21zM549 1573l225 323h236l-267 -323h-194z" />
<glyph unicode="&#xc9;" horiz-adv-x="1198" d="M102 0v1462h1024v-164h-839v-485h747v-164h-747v-485h850v-164h-1035zM430 1573l225 323h236l-266 -323h-195z" />
<glyph unicode="&#xcd;" horiz-adv-x="389" d="M98 1573l226 323h235l-266 -323h-195zM102 0v1462h185v-1462h-185z" />
<glyph unicode="&#xd3;" horiz-adv-x="1546" d="M61 731q0 182 49.5 323.5t141.5 239t224 147.5t298 50t298 -50t223 -147.5t140.5 -239t49.5 -323.5t-49.5 -324.5t-140.5 -238.5t-223 -146.5t-298 -50.5t-298 50.5t-224 146.5t-141.5 238.5t-49.5 324.5zM246 731q0 -289 140 -442.5t388 -153.5t387 153.5t139 442.5 t-139 442.5t-387 153.5t-388 -153.5t-140 -442.5zM627 1573l225 323h235l-266 -323h-194z" />
<glyph unicode="&#xda;" horiz-adv-x="1515" d="M102 549v913h185v-913q0 -215 114.5 -314.5t321.5 -99.5t320.5 99.5t113.5 314.5v913h184v-913q0 -301 -160.5 -439.5t-457.5 -138.5q-147 0 -262 34t-195 104.5t-122 179t-42 260.5zM575 1573l226 323h235l-266 -323h-195z" />
<glyph unicode="&#xdd;" horiz-adv-x="1282" d="M-41 1462h227l451 -719h16l451 719h219l-590 -919v-543h-184v543zM494 1573l225 323h235l-266 -323h-194z" />
<glyph unicode="&#xe1;" horiz-adv-x="1249" d="M61 528q0 141 41 246t111 174.5t161 103t191 33.5q117 0 212 -45t165 -139h21l20 156h164v-1057h-164l-20 156h-21q-70 -92 -165 -138.5t-212 -46.5q-100 0 -191 34t-161 103.5t-111 174t-41 245.5zM246 528q0 -201 100 -297t260 -96q78 0 143.5 23.5t112.5 73t74 123 t27 173.5t-27 174t-74 123t-112.5 73t-143.5 24q-160 0 -260 -96.5t-100 -297.5zM481 1208l185 324h225l-225 -324h-185z" />
<glyph unicode="&#xe9;" horiz-adv-x="1169" d="M61 528q0 141 41 246t112 174.5t168 103t212 33.5q123 0 221 -42t166 -120.5t100.5 -193.5t22.5 -262h-856q16 -170 111.5 -251t232.5 -81q84 0 157.5 36t108.5 103h197q-20 -74 -64.5 -130t-106 -94t-136 -58.5t-154.5 -20.5q-115 0 -212 34t-168 103.5t-112 174 t-41 245.5zM254 631h659q-12 80 -42.5 135t-74.5 90t-96.5 50.5t-107.5 15.5q-129 0 -220 -72t-118 -219zM469 1208l184 324h226l-226 -324h-184z" />
<glyph unicode="&#xed;" horiz-adv-x="389" d="M102 0v1057h185v-1057h-185zM102 1208l185 324h225l-225 -324h-185z" />
<glyph unicode="&#xf3;" d="M61 528q0 141 41 246t115 174.5t175.5 103t221.5 33.5q121 0 222.5 -33.5t175 -103t114.5 -174.5t41 -246t-41 -245.5t-114.5 -174t-175 -103.5t-222.5 -34t-222 34t-175 103.5t-115 174t-41 245.5zM246 528q0 -100 26.5 -173.5t75.5 -123t116.5 -73t147.5 -23.5 q82 0 150.5 23.5t118 73t76 123t26.5 173.5t-26.5 174t-76 123t-118 73t-150.5 24q-80 0 -147.5 -24t-116.5 -73t-75.5 -122.5t-26.5 -174.5zM489 1208l185 324h225l-225 -324h-185z" />
<glyph unicode="&#xfa;" d="M102 465v592h185v-592q0 -176 87 -253t240 -77q154 0 241 85t87 265v572h184v-572q0 -262 -137 -388t-375 -126q-119 0 -214 28t-160.5 88t-101.5 153.5t-36 224.5zM492 1208l184 324h225l-225 -324h-184z" />
<glyph unicode="&#xfd;" horiz-adv-x="1026" d="M-41 1057h203l342 -848h18l342 848h203l-610 -1446h-203l158 375zM389 1208l184 324h226l-226 -324h-184z" />
<glyph unicode="&#x10c;" horiz-adv-x="1443" d="M61 729q0 193 53.5 336t146.5 238.5t221 141.5t276 46q119 0 227.5 -34t192.5 -98.5t138 -158.5t66 -213h-186q-12 80 -51 143.5t-97.5 107.5t-133 66.5t-156.5 22.5q-109 0 -203 -37t-162.5 -110.5t-107.5 -186t-39 -264.5t39 -263.5t107.5 -185t162.5 -109.5t203 -36 q82 0 156.5 22.5t133 65.5t97.5 106.5t51 145.5h186q-12 -121 -66 -214t-138 -157.5t-192.5 -98.5t-227.5 -34q-147 0 -275.5 46t-221.5 140.5t-146.5 237t-53.5 334.5zM379 1896h186l172 -196l172 196h187l-256 -323h-205z" />
<glyph unicode="&#x10d;" horiz-adv-x="1107" d="M61 528q0 141 41 246t112 174.5t168 103t212 33.5q90 0 171 -24.5t145.5 -71.5t105.5 -115.5t51 -156.5h-186q-6 47 -33 85t-67 64.5t-89 41t-100 14.5q-74 0 -137.5 -24t-109.5 -73t-72.5 -123t-26.5 -174t26.5 -173.5t72.5 -123t109.5 -73t137.5 -23.5q51 0 100 14.5 t88 40t65.5 63.5t35.5 87h186q-10 -88 -51 -156.5t-105.5 -116t-145.5 -72t-171 -24.5q-115 0 -212 34t-168 103.5t-112 174t-41 245.5zM238 1532h176l157 -197l160 197h176l-225 -324h-219z" />
<glyph unicode="&#x10e;" horiz-adv-x="1423" d="M102 0v1462h555q145 0 274.5 -39t224.5 -126t150.5 -226t55.5 -340t-55.5 -340t-150.5 -226t-224 -126t-275 -39h-555zM279 1896h186l172 -196l172 196h186l-256 -323h-204zM287 164h370q106 0 201.5 29.5t166.5 97t112 176t41 264.5t-41 264.5t-112 176t-166 97 t-202 29.5h-370v-1134z" />
<glyph unicode="&#x10f;" horiz-adv-x="1392" d="M61 528q0 141 41 246t111 174.5t161 103t191 33.5q117 0 212 -45t165 -139h21v561h184v-1462h-164l-20 156h-21q-70 -92 -165 -138.5t-212 -46.5q-100 0 -191 34t-161 103.5t-111 174t-41 245.5zM246 528q0 -201 100 -297t260 -96q78 0 143.5 23.5t112.5 73t74 123 t27 173.5t-27 174t-74 123t-112.5 73t-143.5 24q-160 0 -260 -96.5t-100 -297.5zM1208 1147l37 369h203l-98 -369h-142z" />
<glyph unicode="&#x11a;" horiz-adv-x="1198" d="M102 0v1462h1024v-164h-839v-485h747v-164h-747v-485h850v-164h-1035zM260 1896h186l172 -196l173 196h186l-256 -323h-205z" />
<glyph unicode="&#x11b;" horiz-adv-x="1169" d="M61 528q0 141 41 246t112 174.5t168 103t212 33.5q123 0 221 -42t166 -120.5t100.5 -193.5t22.5 -262h-856q16 -170 111.5 -251t232.5 -81q84 0 157.5 36t108.5 103h197q-20 -74 -64.5 -130t-106 -94t-136 -58.5t-154.5 -20.5q-115 0 -212 34t-168 103.5t-112 174 t-41 245.5zM254 631h659q-12 80 -42.5 135t-74.5 90t-96.5 50.5t-107.5 15.5q-129 0 -220 -72t-118 -219zM258 1532h176l158 -197l160 197h176l-226 -324h-219z" />
<glyph unicode="&#x147;" horiz-adv-x="1443" d="M102 0v1462h195l840 -1151h20v1151h184v-1462h-194l-840 1151h-20v-1151h-185zM362 1896h187l172 -196l172 196h186l-256 -323h-205z" />
<glyph unicode="&#x148;" d="M102 0v571q0 260 137 387t375 127q119 0 214.5 -28.5t161 -88t101 -152.5t35.5 -224v-592h-184v592q0 176 -87 253t-241 77t-240.5 -85t-86.5 -266v-571h-185zM281 1532h176l157 -197l160 197h176l-225 -324h-219z" />
<glyph unicode="&#x158;" horiz-adv-x="1349" d="M102 0v1462h572q147 0 248.5 -32.5t163 -89t88 -132t26.5 -161.5q0 -127 -62.5 -229.5t-213.5 -151.5v-21q74 -18 123 -52t81.5 -78t53 -99.5t37.5 -118.5l69 -297h-188l-68 287q-10 55 -29.5 106t-57.5 90t-102.5 62.5t-162.5 23.5h-393v-569h-185zM219 1896h187 l172 -196l172 196h186l-256 -323h-205zM287 733h387q96 0 161.5 22.5t105.5 61.5t57.5 90t17.5 109q0 57 -17.5 109.5t-57.5 90t-105.5 60t-161.5 22.5h-387v-565z" />
<glyph unicode="&#x159;" horiz-adv-x="716" d="M49 1532h176l158 -197l160 197h176l-225 -324h-220zM102 0v1057h164l21 -166h20q59 86 154.5 126t255.5 40v-172q-227 23 -326.5 -58.5t-103.5 -246.5v-580h-185z" />
<glyph unicode="&#x160;" horiz-adv-x="1298" d="M63 434h185q-4 -66 16.5 -122t68.5 -98t127 -65.5t189 -23.5q104 0 180 20.5t125.5 56.5t74 84t24.5 103q0 74 -41 119t-107.5 72.5t-151.5 45t-174.5 36t-174.5 45t-151.5 71.5t-107.5 116t-41 179q0 86 33 162t100.5 133t170 90t241.5 33q152 0 257.5 -37t171 -99.5 t94 -147.5t24.5 -181h-184q2 66 -15.5 123t-60.5 99t-113.5 65.5t-173.5 23.5q-94 0 -161.5 -20.5t-111.5 -56t-65.5 -84t-21.5 -103.5q0 -78 41 -126t107.5 -76.5t151.5 -45t174 -34t174 -41t151.5 -67.5t107.5 -114.5t41 -179.5q0 -86 -35 -161.5t-107.5 -133t-183 -90.5 t-262.5 -33q-162 0 -275.5 36t-184 99.5t-100.5 147.5t-26 180zM291 1896h186l172 -196l172 196h187l-256 -323h-205z" />
<glyph unicode="&#x161;" horiz-adv-x="1054" d="M63 313h185q-4 -82 60.5 -135t219.5 -53q145 0 213 48t68 126q0 59 -53.5 87t-134 43t-175 27.5t-175.5 44t-134 90t-53 167.5q0 70 27.5 130t83 104t139.5 68.5t194 24.5q119 0 205 -27.5t140.5 -73.5t78 -108.5t21.5 -132.5h-185q4 82 -57 135.5t-203 53.5 q-131 0 -195.5 -48t-64.5 -126q0 -63 53.5 -91t134.5 -42.5t175 -26.5t175 -43t134 -89t53 -167q0 -70 -27.5 -130t-85 -104.5t-145.5 -69t-207 -24.5q-127 0 -216 28t-145 74t-82 108.5t-22 131.5zM195 1532h176l157 -197l160 197h176l-225 -324h-219z" />
<glyph unicode="&#x164;" horiz-adv-x="1167" d="M0 1298v164h1167v-164h-491v-1298h-184v1298h-492zM225 1896h187l172 -196l172 196h186l-256 -323h-205z" />
<glyph unicode="&#x165;" horiz-adv-x="806" d="M41 893v164h260v282h184v-282h281v-164h-281v-893h-184v893h-260zM547 1147l37 369h202l-98 -369h-141z" />
<glyph unicode="&#x16e;" horiz-adv-x="1443" d="M102 549v913h185v-913q0 -215 114.5 -314.5t321.5 -99.5t320.5 99.5t113.5 314.5v913h184v-913q0 -301 -160.5 -439.5t-457.5 -138.5q-147 0 -262 34t-195 104.5t-122 179t-42 260.5zM465 1714q0 53 19.5 99.5t54 80t81 53t101.5 19.5t101 -19.5t81 -53t54.5 -80 t19.5 -99.5t-19.5 -99t-54.5 -80t-81 -53.5t-101 -19.5t-101.5 19.5t-81 53.5t-54 80t-19.5 99zM604 1714q0 -53 33 -88t84 -35t84 35t33 88t-33 88t-84 35t-84 -35t-33 -88z" />
<glyph unicode="&#x16f;" d="M102 465v592h185v-592q0 -176 87 -253t240 -77q154 0 241 85t87 265v572h184v-572q0 -262 -137 -388t-375 -126q-119 0 -214 28t-160.5 88t-101.5 153.5t-36 224.5zM371 1337q0 51 18.5 95.5t51 76t76.5 50t97 18.5q51 0 96.5 -18.5t78 -50t51 -75.5t18.5 -96 q0 -51 -18.5 -95t-51 -75.5t-77.5 -50t-97 -18.5q-53 0 -97 18.5t-76.5 50t-51 75.5t-18.5 95zM504 1337q0 -51 31.5 -83.5t78.5 -32.5t79 32.5t32 83.5t-31.5 84t-79.5 33q-47 0 -78.5 -33t-31.5 -84z" />
<glyph unicode="&#x17d;" horiz-adv-x="1239" d="M61 0v164l881 1114v20h-881v164h1117v-164l-881 -1114v-20h881v-164h-1117zM260 1896h186l172 -196l173 196h186l-256 -323h-205z" />
<glyph unicode="&#x17e;" horiz-adv-x="1003" d="M61 0v164l644 708v21h-644v164h881v-164l-643 -709v-20h643v-164h-881zM168 1532h176l158 -197l160 197h176l-226 -324h-219z" />
<glyph unicode="&#x2c6;" horiz-adv-x="874" d="M102 1208l226 324h219l225 -324h-176l-158 197l-159 -197h-177z" />
<glyph unicode="&#x2da;" horiz-adv-x="692" d="M102 1337q0 51 18.5 95.5t51.5 76t77 50t97 18.5q51 0 96 -18.5t78 -50t51.5 -75.5t18.5 -96q0 -51 -18.5 -95t-51.5 -75.5t-78 -50t-96 -18.5q-53 0 -97 18.5t-77 50t-51.5 75.5t-18.5 95zM236 1337q0 -51 31.5 -83.5t78.5 -32.5t79 32.5t32 83.5t-32 84t-79 33 t-78.5 -33t-31.5 -84z" />
<glyph unicode="&#x2dc;" horiz-adv-x="958" d="M102 1231q0 68 19.5 116t51.5 80.5t72 48t83 15.5q66 0 107.5 -23.5t74.5 -51t62.5 -51.5t70.5 -24q33 0 60.5 27t27.5 92h125q0 -68 -19.5 -116t-51 -80.5t-71.5 -48t-83 -15.5q-66 0 -108 23.5t-74.5 51.5t-62.5 51.5t-71 23.5q-33 0 -60.5 -27t-27.5 -92h-125z" />
<glyph unicode="&#x2000;" horiz-adv-x="983" />
<glyph unicode="&#x2001;" horiz-adv-x="1966" />
<glyph unicode="&#x2002;" horiz-adv-x="983" />
<glyph unicode="&#x2003;" horiz-adv-x="1966" />
<glyph unicode="&#x2004;" horiz-adv-x="655" />
<glyph unicode="&#x2005;" horiz-adv-x="491" />
<glyph unicode="&#x2006;" horiz-adv-x="327" />
<glyph unicode="&#x2007;" horiz-adv-x="327" />
<glyph unicode="&#x2008;" horiz-adv-x="245" />
<glyph unicode="&#x2009;" horiz-adv-x="393" />
<glyph unicode="&#x200a;" horiz-adv-x="109" />
<glyph unicode="&#x2010;" horiz-adv-x="522" d="M61 446v164h400v-164h-400z" />
<glyph unicode="&#x2011;" horiz-adv-x="522" d="M61 446v164h400v-164h-400z" />
<glyph unicode="&#x2012;" horiz-adv-x="522" d="M61 446v164h400v-164h-400z" />
<glyph unicode="&#x2013;" horiz-adv-x="1064" d="M61 446v164h943v-164h-943z" />
<glyph unicode="&#x2014;" horiz-adv-x="2068" d="M61 446v164h1946v-164h-1946z" />
<glyph unicode="&#x2018;" horiz-adv-x="405" d="M76 1135l147 512h142l-56 -512h-233z" />
<glyph unicode="&#x2019;" horiz-adv-x="405" d="M41 1135l55 512h234l-148 -512h-141z" />
<glyph unicode="&#x201a;" horiz-adv-x="405" d="M41 -266l55 512h234l-148 -512h-141z" />
<glyph unicode="&#x201c;" horiz-adv-x="720" d="M76 1135l147 512h142l-56 -512h-233zM391 1135l148 512h141l-55 -512h-234z" />
<glyph unicode="&#x201d;" horiz-adv-x="720" d="M41 1135l55 512h234l-148 -512h-141zM356 1135l56 512h233l-147 -512h-142z" />
<glyph unicode="&#x201e;" horiz-adv-x="720" d="M41 -266l55 512h234l-148 -512h-141zM356 -266l56 512h233l-147 -512h-142z" />
<glyph unicode="&#x2026;" horiz-adv-x="1511" d="M61 125q0 61 40 101t102 40q61 0 101 -40t40 -101t-40 -101t-101 -40t-101.5 40t-40.5 101zM614 125q0 61 40 101t102 40q61 0 101 -40t40 -101t-40 -101t-101 -40t-101.5 40t-40.5 101zM1167 125q0 61 40 101t102 40q61 0 101 -40t40 -101t-40 -101t-101 -40t-101.5 40 t-40.5 101z" />
<glyph unicode="&#x202f;" horiz-adv-x="393" />
<glyph unicode="&#x2039;" horiz-adv-x="577" d="M20 455v141l517 385v-207l-334 -239v-9l334 -241v-222z" />
<glyph unicode="&#x203a;" horiz-adv-x="577" d="M41 63v207l334 240v8l-334 242v221l516 -391v-141z" />
<glyph unicode="&#x205f;" horiz-adv-x="491" />
<glyph unicode="&#x20ac;" horiz-adv-x="1456" d="M20 496v143h187q-2 23 -2 45.5v44.5v48.5t2 45.5h-187v144h205q27 133 83.5 231t135 163.5t178 97.5t209.5 32q106 0 204 -34t173.5 -98.5t124.5 -158.5t62 -213h-187q-10 80 -44 143.5t-85 107.5t-114.5 66.5t-135.5 22.5q-147 0 -257.5 -88t-155.5 -272h547l-29 -144 h-543q-2 -23 -2 -46v-48v-46t2 -44h518l-28 -143h-467q45 -184 156.5 -272.5t258.5 -88.5q72 0 135.5 22.5t114.5 65.5t85 106.5t44 145.5h187q-12 -121 -61.5 -214t-125 -157.5t-173 -98.5t-204.5 -34q-111 0 -210 32t-177.5 97.5t-135 163.5t-83.5 232h-205z" />
<glyph unicode="&#x2122;" horiz-adv-x="1159" d="M20 1368v94h420v-94h-157v-422h-105v422h-158zM516 946v516h160l133 -350h4l133 350h152v-516h-103v365h-4l-141 -365h-84l-141 365h-4v-365h-105z" />
<glyph unicode="&#xe000;" horiz-adv-x="1054" d="M0 0v1055h1055v-1055h-1055z" />
</font>
</defs>
</svg>
