<?xml version="1.0" standalone="no"?>
<!DOCTYPE svg PUBLIC "-//W3C//DTD SVG 1.1//EN" "http://www.w3.org/Graphics/SVG/1.1/DTD/svg11.dtd" >
<svg xmlns="http://www.w3.org/2000/svg">
<metadata></metadata>
<defs>
<font id="NovaticaLightRegular" horiz-adv-x="1415" >
<font-face units-per-em="2048" ascent="1638" descent="-410" />
<missing-glyph horiz-adv-x="552" />
<glyph horiz-adv-x="0" />
<glyph horiz-adv-x="0" />
<glyph unicode=" "  horiz-adv-x="552" />
<glyph unicode="&#x09;" horiz-adv-x="552" />
<glyph unicode="&#xa0;" horiz-adv-x="552" />
<glyph unicode="!" horiz-adv-x="468" d="M123 98q0 47 31.5 79t81.5 32q47 0 78.5 -32t31.5 -79q0 -49 -31.5 -80.5t-78.5 -31.5q-49 0 -81 31.5t-32 80.5zM152 1462h167l-30 -1091h-107z" />
<glyph unicode="&#x22;" horiz-adv-x="716" d="M123 1462h147l-20 -594h-107zM446 1462h148l-21 -594h-106z" />
<glyph unicode="#" d="M0 356v119h264l164 512h-248v119h283l112 356h127l-112 -356h469l112 356h127l-112 -356h229v-119h-264l-164 -512h248v-119h-285l-110 -356h-127l110 356h-467l-112 -356h-127l110 356h-227zM393 475h467l162 512h-467z" />
<glyph unicode="$" horiz-adv-x="1275" d="M63 418h127q-2 -59 16.5 -116.5t64.5 -103.5t121 -77t186 -37v600q-88 16 -170 42t-145.5 70t-102.5 114.5t-39 176.5q0 74 24.5 142.5t79 123t141.5 91.5t212 45v260h127v-260q129 -8 217 -47t143 -100.5t79.5 -138.5t22.5 -161h-127q2 68 -16 126.5t-58 102.5 t-104.5 71.5t-156.5 35.5v-604q94 -18 185 -40.5t162.5 -65.5t116.5 -113t45 -180q0 -74 -28.5 -142.5t-90 -124t-157.5 -91t-233 -44.5v-260h-127v260q-131 6 -229.5 43t-163 95.5t-95.5 136.5t-27 170zM248 1079q0 -68 25.5 -114.5t70.5 -78.5t105.5 -52.5t128.5 -34.5 v579q-90 -8 -153 -34.5t-101.5 -66.5t-57 -91.5t-18.5 -106.5zM705 84q100 6 172.5 32.5t119.5 67.5t68.5 92.5t21.5 108.5q0 70 -31.5 117t-83.5 76.5t-122 48t-145 32.5v-575z" />
<glyph unicode="%" horiz-adv-x="1564" d="M61 1110q0 109 26 181.5t70 117.5t101 63.5t121 18.5q63 0 120.5 -18.5t100.5 -63.5t68.5 -117.5t25.5 -181.5t-25.5 -181.5t-68.5 -117.5t-100.5 -63.5t-120.5 -18.5t-120.5 18.5t-101.5 63.5t-70 117.5t-26 181.5zM188 1110q0 -78 15.5 -131t41 -86t60.5 -47.5 t72 -14.5q39 0 72.5 14.5t60.5 47.5t42 86t15 131t-15 131t-42 86t-60.5 47.5t-70.5 14.5t-72 -14.5t-61.5 -47.5t-42 -86t-15.5 -131zM207 0l1012 1462h141l-1012 -1462h-141zM870 352q0 109 26 181.5t70 117.5t101 63.5t121 18.5q63 0 120.5 -18.5t100.5 -63.5 t68.5 -117.5t25.5 -181.5t-25.5 -181.5t-68.5 -117.5t-100.5 -63.5t-120.5 -18.5t-120.5 18.5t-101.5 63.5t-70 118t-26 181zM997 352q0 -78 15.5 -131t41 -86t60.5 -47t72 -14q39 0 72.5 14t60.5 47t42 86t15 131t-15 131.5t-42 86t-60.5 47t-70.5 14.5t-72 -14.5 t-61.5 -47t-42 -86t-15.5 -131.5z" />
<glyph unicode="&#x26;" horiz-adv-x="1361" d="M41 338q0 80 24.5 143.5t68.5 114.5t104.5 93t132.5 79v20q-203 166 -203 361q0 80 28.5 143.5t78 107.5t114 67.5t135.5 23.5q72 0 136.5 -23.5t113.5 -67.5t78 -108.5t29 -144.5q0 -125 -79 -219t-224 -160v-20l407 -353q29 72 45.5 164t16.5 195h120 q0 -135 -23.5 -245t-64.5 -196l283 -243l-78 -86l-266 229q-92 -123 -223 -182.5t-291 -59.5q-104 0 -189.5 28t-147 77t-94 116.5t-32.5 145.5zM168 338q0 -57 24.5 -104.5t69.5 -81t106.5 -52t135.5 -18.5q127 0 239.5 52t184.5 157l-467 403q-63 -35 -116.5 -71.5 t-92.5 -78.5t-61.5 -93.5t-22.5 -112.5zM295 1149q0 -72 44 -147.5t138 -165.5q55 29 105.5 60.5t88.5 70.5t60.5 83t22.5 97q0 106 -65.5 169.5t-164.5 63.5q-96 0 -162.5 -61.5t-66.5 -169.5z" />
<glyph unicode="'" horiz-adv-x="393" d="M123 1462h147l-20 -594h-107z" />
<glyph unicode="(" horiz-adv-x="542" d="M102 725q0 147 24 276t65.5 243t102 212t134.5 186h135q-147 -190 -236 -419.5t-89 -497.5q0 -258 89 -488.5t236 -416.5h-135q-147 172 -236.5 393t-89.5 512z" />
<glyph unicode=")" horiz-adv-x="542" d="M-20 -180q147 190 236 419.5t89 497.5q0 258 -89 488.5t-236 416.5h135q147 -172 236 -393t89 -512q0 -147 -23.5 -276t-65.5 -243t-102.5 -212t-133.5 -186h-135z" />
<glyph unicode="*" horiz-adv-x="944" d="M61 1202l41 125l328 -129l-22 352h131l-23 -352l326 129l41 -125l-344 -88l223 -268l-107 -78l-186 295l-186 -295l-107 78l223 270z" />
<glyph unicode="+" horiz-adv-x="1048" d="M61 678v119h400v413h127v-413h399v-119h-399v-412h-127v412h-400z" />
<glyph unicode="," horiz-adv-x="346" d="M41 -266l53 487h189l-142 -487h-100z" />
<glyph unicode="-" horiz-adv-x="493" d="M61 473v111h371v-111h-371z" />
<glyph unicode="." horiz-adv-x="346" d="M61 98q0 47 32 79t81 32q47 0 79 -32t32 -79q0 -49 -32 -80.5t-79 -31.5q-49 0 -81 31.5t-32 80.5z" />
<glyph unicode="/" horiz-adv-x="704" d="M-61 -180l696 1822h131l-696 -1822h-131z" />
<glyph unicode="0" horiz-adv-x="1087" d="M41 731q0 217 41 362.5t110.5 233.5t160.5 126t192 38q98 0 189 -38t161 -126t111 -233.5t41 -362.5t-41 -362.5t-111 -233.5t-161 -126t-189 -38q-100 0 -191.5 38t-161 126t-110.5 233.5t-41 362.5zM168 731q0 -201 34 -326.5t87 -197.5t120.5 -98.5t135.5 -26.5 t135.5 26.5t120.5 98.5t86 197.5t33 326.5q0 199 -33 326t-86 198.5t-121 98t-135 26.5q-68 0 -135.5 -26.5t-120.5 -98t-87 -198.5t-34 -326z" />
<glyph unicode="1" horiz-adv-x="641" d="M41 1249l371 213h127v-1462h-127v1317h-21l-297 -172z" />
<glyph unicode="2" horiz-adv-x="1007" d="M35 967q-8 96 12.5 190t75.5 168t148.5 120t230.5 46q106 0 191 -32t144.5 -89t92.5 -138t33 -181q0 -68 -25 -133.5t-61.5 -125t-80.5 -108.5t-83 -86l-496 -467v-20h748v-111h-926v111l612 589q86 84 135.5 177.5t49.5 175.5q0 154 -90.5 240.5t-243.5 86.5 q-72 0 -137.5 -22.5t-112.5 -71.5t-72.5 -128t-19.5 -191h-125z" />
<glyph unicode="3" horiz-adv-x="1052" d="M43 475h127q-2 -111 24.5 -186.5t75.5 -121.5t118 -65.5t151 -19.5q158 0 252 88t94 233q0 66 -25.5 122.5t-70 96.5t-106.5 62.5t-136 22.5h-92v110h71q68 0 126.5 20.5t101.5 58.5t67.5 91t24.5 117q0 68 -24.5 119t-68.5 87t-104.5 53t-130.5 17q-72 0 -136.5 -21.5 t-111.5 -66.5t-72.5 -114.5t-19.5 -167.5h-127q-4 119 29 209t94.5 150.5t149.5 91t192 30.5q76 0 158 -18.5t147.5 -62.5t108.5 -120t43 -190q0 -115 -61.5 -197t-166.5 -119v-20q57 -14 106.5 -48t84.5 -80t55.5 -102.5t20.5 -115.5q0 -117 -43 -202t-112 -139t-157 -80 t-180 -26q-244 0 -365.5 134.5t-111.5 369.5z" />
<glyph unicode="4" horiz-adv-x="1040" d="M0 367v118l713 977h155v-985h152v-110h-152v-367h-127v367h-741zM139 477h602v813h-20l-582 -792v-21z" />
<glyph unicode="5" horiz-adv-x="1048" d="M43 395h127q-4 -66 12.5 -123t58.5 -99t109.5 -66.5t163.5 -24.5q166 0 266.5 91t100.5 271q0 66 -19.5 127.5t-62.5 107.5t-108.5 73.5t-158.5 27.5q-96 0 -173.5 -29.5t-143.5 -117.5l-129 20l45 809h782v-121h-669l-31 -555h16q37 27 71 46.5t71 33t81 19.5t99 6 q94 0 177 -28.5t145.5 -86t98.5 -140.5t36 -194q0 -115 -37 -202.5t-102.5 -147t-156 -90.5t-196.5 -31q-141 0 -235.5 38t-148.5 99.5t-74.5 137.5t-14.5 149z" />
<glyph unicode="6" horiz-adv-x="1114" d="M41 711q0 385 141.5 582.5t392.5 197.5q115 0 197 -33t137.5 -88t84 -129t36.5 -158h-127q-8 63 -31.5 117.5t-64.5 94.5t-98.5 62.5t-133.5 22.5q-98 0 -174.5 -41t-129 -128t-79 -224t-26.5 -330h20q92 125 193.5 171t222.5 46q104 0 190.5 -28.5t149 -84.5t97 -139 t34.5 -192q0 -96 -36 -180t-100.5 -145.5t-155.5 -97.5t-199 -36q-164 0 -268.5 60.5t-165 163t-84 235.5t-23.5 281zM215 420q0 -68 20.5 -129.5t65.5 -107.5t113.5 -73.5t167.5 -27.5q90 0 157.5 28.5t113.5 78t69.5 111.5t23.5 130t-20.5 129.5t-64.5 106.5t-112.5 71.5 t-166.5 26.5q-86 0 -155 -27.5t-116 -76t-71.5 -110.5t-24.5 -130z" />
<glyph unicode="7" horiz-adv-x="993" d="M20 1352v110h953v-104l-580 -1358h-141l594 1331v21h-826z" />
<glyph unicode="8" horiz-adv-x="1128" d="M41 397q0 66 22.5 124.5t59.5 104.5t84 78.5t96 47.5v20q-43 18 -84 50t-72.5 74t-50 93t-18.5 111q0 115 45 190.5t115.5 119.5t156.5 62.5t170 18.5q82 0 169 -18.5t158 -62.5t116 -120t45 -190q0 -59 -19.5 -110.5t-50.5 -93.5t-72 -73.5t-84 -50.5v-20 q49 -14 96.5 -47t84 -79t58 -104.5t21.5 -124.5q0 -117 -44 -198.5t-116.5 -132t-167 -73t-194.5 -22.5t-194.5 22.5t-168 73t-117.5 132.5t-44 198zM168 397q0 -84 30.5 -143t84 -97t126 -56.5t156.5 -18.5t157 18.5t126 56.5t83 97t30 143q0 154 -108 232t-288 78 t-288.5 -78t-108.5 -232zM207 1098q0 -74 26.5 -127t73.5 -87t113.5 -50.5t144.5 -16.5t143.5 16.5t113.5 50.5t75 87t27 127q0 72 -28 125t-75 88t-113.5 52t-142.5 17q-78 0 -143.5 -17t-113.5 -52t-74.5 -88.5t-26.5 -124.5z" />
<glyph unicode="9" horiz-adv-x="1114" d="M41 1032q0 96 36 180t100.5 145.5t155.5 97.5t199 36q164 0 268.5 -60.5t165 -163t84 -235.5t23.5 -280q0 -385 -141 -583t-393 -198q-115 0 -197 33t-137 88t-84 129t-37 158h127q8 -63 31.5 -117.5t64.5 -94.5t98.5 -62.5t133.5 -22.5q98 0 173.5 41t128 128t80 224 t27.5 330h-20q-47 -63 -94.5 -105.5t-98.5 -67t-106.5 -34.5t-116.5 -10q-104 0 -190 28.5t-148.5 85t-97.5 139.5t-35 191zM168 1032q0 -68 20.5 -129t64.5 -106t112.5 -72t166.5 -27q86 0 155 28t116 76t71.5 110t24.5 130t-20.5 129.5t-65.5 107.5t-113.5 73.5 t-167.5 27.5q-90 0 -157.5 -28.5t-113.5 -77.5t-69.5 -111.5t-23.5 -130.5z" />
<glyph unicode=":" horiz-adv-x="346" d="M61 98q0 47 32 79t81 32q47 0 79 -32t32 -79q0 -49 -32 -80.5t-79 -31.5q-49 0 -81 31.5t-32 80.5zM61 961q0 47 32 78.5t81 31.5q47 0 79 -31.5t32 -78.5q0 -49 -32 -81t-79 -32q-49 0 -81 32t-32 81z" />
<glyph unicode=";" horiz-adv-x="346" d="M41 -266l53 487h189l-142 -487h-100zM61 961q0 47 32 78.5t81 31.5q47 0 79 -31.5t32 -78.5q0 -49 -32 -81t-79 -32q-49 0 -81 32t-32 81z" />
<glyph unicode="&#x3c;" horiz-adv-x="1048" d="M61 651v174l926 334v-119l-788 -288v-21l788 -285v-133z" />
<glyph unicode="=" horiz-adv-x="1048" d="M61 516v119h926v-119h-926zM61 840v118h926v-118h-926z" />
<glyph unicode="&#x3e;" horiz-adv-x="1048" d="M61 315v119l789 289v20l-789 285v133l926 -338v-174z" />
<glyph unicode="?" horiz-adv-x="1085" d="M86 995q-8 90 13.5 179.5t76.5 160t145.5 113.5t219.5 43q229 0 346 -110.5t117 -319.5q0 -84 -30 -154.5t-82 -126t-125 -95.5t-161 -62l-8 -252h-106l-11 350q104 8 179 41t123 81t71 107.5t23 120.5q0 141 -84 225t-250 84q-70 0 -133.5 -22.5t-110.5 -69.5 t-71.5 -119.5t-16.5 -173.5h-125zM432 98q0 47 32 79t81 32q47 0 78.5 -32t31.5 -79q0 -49 -31.5 -80.5t-78.5 -31.5q-49 0 -81 31.5t-32 80.5z" />
<glyph unicode="@" horiz-adv-x="2265" d="M123 438q0 233 86 427t234.5 333t348 216t427.5 77q209 0 378.5 -61.5t290.5 -174t187.5 -269.5t66.5 -349q0 -166 -46 -282.5t-116.5 -190.5t-157.5 -106.5t-167 -32.5q-88 0 -155.5 46t-80.5 136h-20q-72 -98 -173.5 -139t-207.5 -41q-186 0 -293 113.5t-107 312.5 q0 135 40 240.5t110 179t165 112.5t208 39q125 0 207 -44t135 -128h18l35 145h104l-84 -692q-6 -57 1.5 -91t24.5 -51.5t43 -22.5t56 -5q59 0 119 31t108 93.5t77.5 156.5t29.5 221q0 166 -56 302t-160.5 234.5t-252 152.5t-327.5 54q-190 0 -365.5 -65.5t-309.5 -188 t-214 -297t-80 -391.5q0 -164 56 -300t159.5 -235.5t250 -154.5t328.5 -55q133 0 267.5 31.5t259.5 103.5l55 -100q-127 -72 -271.5 -109t-310.5 -37q-207 0 -376.5 62.5t-290.5 175t-187.5 270.5t-66.5 348zM745 471q0 -162 85 -248t221 -86q88 0 162.5 31t130 88t86 140 t30.5 190q0 152 -82 239.5t-233 87.5q-94 0 -169 -34.5t-126 -95t-78 -140.5t-27 -172z" />
<glyph unicode="B" horiz-adv-x="1292" d="M102 0v1462h637q123 0 209 -29.5t139.5 -81t78 -120t24.5 -144.5q0 -115 -49 -198.5t-158 -132.5v-21q131 -47 189.5 -143t58.5 -217q0 -78 -24.5 -146.5t-78 -119t-139.5 -80t-209 -29.5h-678zM229 111h566q86 0 144 21.5t95 60t53.5 90t16.5 110.5q0 57 -16.5 108.5 t-53.5 90.5t-95 61.5t-144 22.5h-566v-565zM229 786h525q86 0 144 22.5t95 61.5t53.5 90.5t16.5 108.5t-16.5 109.5t-53.5 90.5t-95 60.5t-144 22.5h-525v-566z" />
<glyph unicode="C" d="M61 727q0 195 53.5 338t145.5 238.5t216 141.5t265 46q119 0 223.5 -34t185.5 -95.5t134 -148.5t70 -193h-125q-16 84 -59.5 150.5t-108 113.5t-146 71.5t-174.5 24.5q-117 0 -218 -40t-176 -120.5t-117 -203.5t-42 -289q0 -164 42 -284.5t117 -200.5t176.5 -120 t217.5 -40q92 0 174 24.5t146.5 70.5t107.5 113.5t60 151.5h125q-16 -109 -69.5 -195.5t-134.5 -148t-185.5 -94.5t-223.5 -33q-141 0 -265 46t-216 140.5t-145.5 237t-53.5 332.5z" />
<glyph unicode="D" horiz-adv-x="1394" d="M102 0v1462h527q145 0 274 -39t224.5 -126t150.5 -226t55 -340q0 -193 -55 -331t-150.5 -227t-224.5 -131t-274 -42h-527zM229 111h430q100 0 198.5 31.5t176.5 104t125 191.5t47 293t-47 293t-125 191.5t-176 104.5t-199 32h-430v-1241z" />
<glyph unicode="E" horiz-adv-x="1169" d="M102 0v1462h996v-110h-869v-566h777v-110h-777v-565h879v-111h-1006z" />
<glyph unicode="F" horiz-adv-x="1097" d="M102 0v1462h955v-110h-828v-627h736v-111h-736v-614h-127z" />
<glyph unicode="G" horiz-adv-x="1476" d="M61 727q0 195 52.5 338t143.5 238.5t216 141.5t272 46q115 0 217.5 -34t184.5 -98.5t136 -156.5t73 -207h-123q-12 92 -56 164t-111 121t-149.5 74.5t-171.5 25.5q-123 0 -225 -40t-176 -120.5t-115 -203.5t-41 -289q0 -164 41 -284.5t115 -200.5t176 -120t225 -40 q88 0 179.5 29.5t165 92t118.5 158.5q40 86 40 199q0 15 -1 31h-483v110h610v-702h-114l-21 195h-20q-102 -123 -231.5 -173.5t-252.5 -50.5q-139 0 -262 45t-214 137.5t-144.5 234.5t-53.5 339z" />
<glyph unicode="H" d="M102 0v1462h127v-676h957v676h127v-1462h-127v676h-957v-676h-127z" />
<glyph unicode="I" horiz-adv-x="331" d="M102 0v1462h127v-1462h-127z" />
<glyph unicode="J" horiz-adv-x="1069" d="M23 455h127v-17q0 -164 74 -258q77 -98 257 -98q186 0 272.5 110.5t86.5 356.5v913h127v-921q0 -297 -117 -433.5t-365 -136.5q-123 0 -213 35t-146 97.5t-82 151.5q-22 75 -22 165q0 17 1 35z" />
<glyph unicode="K" horiz-adv-x="1193" d="M102 0v1462h127v-669h21l762 669h182l-813 -714l854 -748h-203l-782 686h-21v-686h-127z" />
<glyph unicode="L" horiz-adv-x="1067" d="M102 0v1462h127v-1351h818v-111h-945z" />
<glyph unicode="M" horiz-adv-x="1675" d="M102 0v1462h187l540 -1292h21l541 1292h182v-1462h-127v1225h-21l-520 -1225h-135l-520 1225h-21v-1225h-127z" />
<glyph unicode="N" d="M102 0v1462h148l915 -1253h21v1253h127v-1462h-148l-915 1253h-21v-1253h-127z" />
<glyph unicode="O" horiz-adv-x="1517" d="M61 731q0 182 48.5 323.5t138.5 239t219 147.5t293 50q162 0 292 -50t219 -147.5t137 -239t48 -323.5t-48 -324.5t-137 -238.5t-219 -146.5t-292 -50.5q-164 0 -293 50.5t-219 146.5t-138.5 238.5t-48.5 324.5zM188 731q0 -317 148.5 -483t423.5 -166q272 0 420.5 166 t148.5 483t-148.5 483t-420.5 166q-274 0 -423 -165.5t-149 -483.5z" />
<glyph unicode="P" horiz-adv-x="1236" d="M102 0v1462h543q150 0 251 -35.5t163.5 -97t89.5 -144.5t27 -177q0 -92 -27 -175t-89.5 -144.5t-163.5 -98.5t-251 -37h-416v-553h-127zM229 664h418q117 0 195 29.5t124 77.5t64.5 109.5t18.5 127.5t-18.5 128t-64.5 110t-124 77t-195 29h-418v-688z" />
<glyph unicode="Q" horiz-adv-x="1517" d="M61 731q0 182 48.5 323.5t138.5 239t219 147.5t293 50q162 0 292 -50t219 -147.5t137 -239t48 -323.5q0 -276 -103.5 -444t-277.5 -246v-21l422 -243l-63 -107l-541 312q-33 -4 -65.5 -7.5t-67.5 -3.5q-164 0 -293 50.5t-219 146.5t-138.5 238.5t-48.5 324.5zM188 731 q0 -317 148.5 -483t423.5 -166q272 0 420.5 166t148.5 483t-148.5 483t-420.5 166q-274 0 -423 -165.5t-149 -483.5z" />
<glyph unicode="R" horiz-adv-x="1323" d="M102 0v1462h533q150 0 251 -32.5t162.5 -88t88 -130t26.5 -160.5q0 -63 -12 -121t-42 -106t-81 -86t-131 -62v-21q70 -18 117 -49t78.5 -75t53 -100t38.5 -124l78 -307h-132l-73 293q-14 53 -33.5 107.5t-60.5 97.5t-111 69.5t-184 26.5h-439v-594h-127zM229 705h426 q111 0 183.5 28.5t116.5 74.5t62.5 104.5t18.5 117.5q0 61 -18.5 119.5t-62.5 102.5t-116.5 72t-183.5 28h-426v-647z" />
<glyph unicode="S" horiz-adv-x="1275" d="M63 418h127v-11q0 -57 20 -113q22 -61 74 -108t138 -75.5t215 -28.5q119 0 205 24.5t140 65.5t79.5 96.5t25.5 116.5q0 82 -41.5 132t-109.5 80t-155 47.5t-177 34.5t-177 41.5t-154.5 69t-109.5 116t-42 181.5q0 78 27.5 151t90 129t163 90t243.5 34q145 0 245.5 -37 t163 -99.5t88.5 -143.5q25 -75 25 -157v-12h-127v13q0 67 -20 123q-22 62 -69.5 106.5t-124 70t-187.5 25.5q-106 0 -180 -24.5t-121 -66.5t-68.5 -96t-21.5 -114q0 -86 42 -139t109.5 -85t154.5 -50.5t177 -35.5t177 -40.5t154.5 -67t109.5 -112t42 -174.5 q0 -78 -31.5 -149.5t-101 -129t-179 -91.5t-265.5 -34q-145 0 -255 34t-181.5 93.5t-106.5 141.5q-31 74 -31 158v20z" />
<glyph unicode="T" horiz-adv-x="1138" d="M0 1352v110h1139v-110h-506v-1352h-127v1352h-506z" />
<glyph unicode="U" d="M102 537v925h127v-930q0 -233 127 -341.5t353 -108.5q225 0 351 108.5t126 341.5v930h127v-925q0 -295 -156.5 -430.5t-447.5 -135.5q-287 0 -447 135.5t-160 430.5z" />
<glyph unicode="V" horiz-adv-x="1294" d="M-41 1462h139l541 -1292h20l541 1292h135l-620 -1462h-135z" />
<glyph unicode="W" horiz-adv-x="1781" d="M-41 1462h135l359 -1274h20l334 1274h170l338 -1274h20l357 1274h131l-418 -1462h-168l-336 1270h-20l-336 -1270h-168z" />
<glyph unicode="X" horiz-adv-x="1329" d="M0 0l582 731l-582 731h166l491 -628h17l491 628h162l-582 -731l584 -731h-168l-491 629h-17l-491 -629h-162z" />
<glyph unicode="Y" horiz-adv-x="1236" d="M-41 1462h154l499 -782h17l499 782h150l-596 -919v-543h-127v543z" />
<glyph unicode="Z" horiz-adv-x="1210" d="M61 0v111l922 1220v21h-922v110h1088v-110l-922 -1221v-20h922v-111h-1088z" />
<glyph unicode="[" horiz-adv-x="526" d="M102 -180v1822h404v-110h-277v-1602h277v-110h-404z" />
<glyph unicode="\" horiz-adv-x="704" d="M-61 1642h131l696 -1822h-131z" />
<glyph unicode="]" horiz-adv-x="526" d="M20 -70h277v1602h-277v110h404v-1822h-404v110z" />
<glyph unicode="^" horiz-adv-x="950" d="M-41 406l449 1056h135l448 -1056h-137l-371 886h-20l-367 -886h-137z" />
<glyph unicode="_" horiz-adv-x="1024" d="M10 -29h1004v-110h-1004v110z" />
<glyph unicode="`" horiz-adv-x="542" d="M102 1532h170l168 -324h-133z" />
<glyph unicode="a" horiz-adv-x="1224" d="M61 528q0 133 38 236.5t105.5 175.5t162 108.5t204.5 36.5q111 0 218.5 -40.5t185.5 -151.5h20l21 164h106v-1057h-106l-21 172h-20q-76 -115 -182.5 -158t-221.5 -43q-111 0 -205 37t-161.5 107.5t-105.5 175t-38 237.5zM188 528q0 -104 30 -187t84 -140.5t128 -88 t162 -30.5t161.5 27.5t127 83t84 139.5t30.5 196q0 113 -30.5 197t-84 139.5t-127 83t-161.5 27.5t-162 -31t-128 -88t-84 -140.5t-30 -187.5z" />
<glyph unicode="b" horiz-adv-x="1224" d="M102 0v1462h127v-577h21q76 115 182.5 157.5t220.5 42.5q111 0 205 -36.5t161.5 -107.5t105.5 -175t38 -238q0 -133 -38 -236.5t-105.5 -175t-161.5 -108.5t-205 -37t-218 41t-185 152h-21l-20 -164h-107zM229 528q0 -113 30 -196.5t84 -139t128 -83t162 -27.5 t161.5 30.5t128 88t84 140.5t29.5 187t-29.5 187.5t-84 140.5t-128 88t-161.5 31t-162 -27.5t-128 -83t-84 -139.5t-30 -197z" />
<glyph unicode="c" horiz-adv-x="1077" d="M61 528q0 141 42 246t114 174.5t166 103t197 33.5q86 0 162.5 -24.5t137 -68.5t101.5 -107.5t55 -143.5h-127q-10 49 -38.5 91t-73.5 74t-100.5 50.5t-116.5 18.5q-82 0 -154 -28.5t-124 -86t-83 -140.5t-31 -192t31 -191.5t83 -140t124 -86t154 -28.5q61 0 116.5 18.5 t100.5 50t73.5 73.5t38.5 91h127q-14 -80 -55 -143t-101.5 -107.5t-137 -69t-162.5 -24.5q-102 0 -196.5 34t-166.5 103.5t-114 174t-42 245.5z" />
<glyph unicode="d" horiz-adv-x="1224" d="M61 528q0 133 38 236.5t105.5 175.5t162 108.5t204.5 36.5q111 0 218.5 -40.5t185.5 -151.5h20v569h127v-1462h-106l-21 172h-20q-76 -115 -182.5 -158t-221.5 -43q-111 0 -205 37t-161.5 107.5t-105.5 175t-38 237.5zM188 528q0 -104 30 -187t84 -140.5t128 -88 t162 -30.5t161.5 27.5t127 83t84 139.5t30.5 196q0 113 -30.5 197t-84 139.5t-127 83t-161.5 27.5t-162 -31t-128 -88t-84 -140.5t-30 -187.5z" />
<glyph unicode="e" horiz-adv-x="1144" d="M61 528q0 135 41 239.5t111 175.5t164 106.5t203 35.5q115 0 210 -40.5t162.5 -117.5t101.5 -187q28 -94 28 -207q0 -20 -1 -41h-893q6 -98 38 -174t84 -128.5t121 -80t149 -27.5q98 0 185 47t130 139h129q-23 -76 -68 -131t-105 -92t-130 -55.5t-141 -18.5 q-123 0 -219.5 42t-163 116t-101.5 176.5t-35 222.5zM195 602h747q-6 86 -34.5 154.5t-76 117t-111.5 75t-140 26.5q-74 0 -139.5 -23.5t-118 -70.5t-86 -117t-41.5 -162z" />
<glyph unicode="f" horiz-adv-x="698" d="M41 946v111h192v90q0 94 20.5 160.5t58.5 106.5t91.5 58.5t120.5 18.5q43 0 85 -3t89 -7v-111q-86 8 -150 9h-5q-60 0 -100 -19q-42 -21 -62.5 -71t-20.5 -142v-90h338v-111h-338v-946h-127v946h-192z" />
<glyph unicode="g" horiz-adv-x="1224" d="M61 569q0 123 38 219.5t105.5 162t162 100t204.5 34.5q111 0 218.5 -40.5t185.5 -151.5h20l21 164h106v-957q0 -141 -47 -239.5t-121.5 -160.5t-170 -90t-189.5 -28q-246 0 -364 90q-113 86 -113 229v15h127v-9q0 -98 83 -155q87 -59 267 -59q72 0 143.5 21.5t129 70.5 t93 127t35.5 188v154h-20q-76 -115 -182.5 -158t-221.5 -43q-111 0 -205 34t-161.5 100.5t-105.5 162.5t-38 219zM188 569q0 -96 30 -170.5t84 -127t128 -80t164 -27.5q86 0 159.5 27.5t127 80t83 128t29.5 169.5t-29.5 170t-83 128.5t-127 80t-159.5 27.5q-90 0 -164 -27.5 t-128 -80t-84 -128.5t-30 -170z" />
<glyph unicode="h" horiz-adv-x="1204" d="M102 0v1462h127v-577h21q63 98 164.5 149t238.5 51q221 0 335 -127t114 -395v-563h-127v594q0 98 -27.5 171t-75 119t-109 68.5t-130.5 22.5q-90 0 -164 -28.5t-127 -85t-83 -139.5t-30 -194v-528h-127z" />
<glyph unicode="i" horiz-adv-x="331" d="M74 1346q0 41 25.5 66.5t66.5 25.5t66.5 -26t25.5 -66q0 -41 -25.5 -67t-66.5 -26t-66.5 26t-25.5 67zM102 0v1057h127v-1057h-127z" />
<glyph unicode="j" horiz-adv-x="331" d="M74 1346q0 41 25.5 66.5t66.5 25.5t66.5 -26t25.5 -66q0 -41 -25.5 -67t-66.5 -26t-66.5 26t-25.5 67zM102 -389v1446h127v-1446h-127z" />
<glyph unicode="k" horiz-adv-x="993" d="M102 0v1462h127v-860h21l596 455h192l-653 -500l659 -557h-196l-598 506h-21v-506h-127z" />
<glyph unicode="l" horiz-adv-x="331" d="M102 0v1462h127v-1462h-127z" />
<glyph unicode="m" horiz-adv-x="1789" d="M102 0v571q0 262 114.5 388t313.5 126q131 0 221.5 -48t137.5 -156h20q94 204 349 204h2q100 0 179 -28.5t134 -88t85 -152.5t30 -224v-592h-127v592q0 104 -21.5 177t-61.5 119t-95.5 66.5t-122.5 20.5q-135 0 -218.5 -95.5t-83.5 -308.5v-571h-127v592q0 104 -21.5 177 t-61 119t-95 66.5t-123.5 20.5q-135 0 -218 -95.5t-83 -308.5v-571h-127z" />
<glyph unicode="n" horiz-adv-x="1204" d="M102 0v571q0 260 134.5 387t365.5 127q117 0 209 -28.5t156.5 -88t99.5 -152.5t35 -224v-592h-127v592q0 104 -27.5 177t-77 119t-118 66.5t-150.5 20.5q-84 0 -152.5 -22.5t-117.5 -72t-76 -126t-27 -183.5v-571h-127z" />
<glyph unicode="o" horiz-adv-x="1204" d="M61 528q0 141 40 246t113 174.5t172 103t216 33.5q119 0 218.5 -33.5t171 -103t111.5 -174.5t40 -246t-40 -245.5t-111.5 -174t-171 -103.5t-218.5 -34q-117 0 -216 34t-172 103.5t-113 174t-40 245.5zM188 528q0 -113 31 -196.5t86 -139t131 -83t166 -27.5t166 27.5 t131 83t86 139t31 196.5t-31 197t-86 139.5t-131 83t-166 27.5t-166 -27.5t-131 -83t-86 -139.5t-31 -197z" />
<glyph unicode="p" horiz-adv-x="1224" d="M102 -389v1446h107l20 -172h21q76 115 182.5 157.5t220.5 42.5q111 0 205 -36.5t161.5 -107.5t105.5 -175t38 -238q0 -133 -38 -236.5t-105.5 -175t-161.5 -108.5t-205 -37t-218 41t-185 152h-21v-553h-127zM229 528q0 -113 30 -196.5t84 -139t128 -83t162 -27.5 t161.5 30.5t128 88t84 140.5t29.5 187t-29.5 187.5t-84 140.5t-128 88t-161.5 31t-162 -27.5t-128 -83t-84 -139.5t-30 -197z" />
<glyph unicode="q" horiz-adv-x="1224" d="M61 528q0 133 38 236.5t105.5 175.5t162 108.5t204.5 36.5q111 0 218.5 -40.5t185.5 -151.5h20l21 164h106v-1446h-127v561h-20q-76 -115 -182.5 -158t-221.5 -43q-111 0 -205 37t-161.5 107.5t-105.5 175t-38 237.5zM188 528q0 -104 30 -187t84 -140.5t128 -88 t162 -30.5t161.5 27.5t127 83t84 139.5t30.5 196q0 113 -30.5 197t-84 139.5t-127 83t-161.5 27.5t-162 -31t-128 -88t-84 -140.5t-30 -187.5z" />
<glyph unicode="r" horiz-adv-x="688" d="M102 0v1057h107l20 -172h21q59 90 165.5 131t272.5 41v-121q-43 4 -81 4q-72 0 -129 -14q-87 -22 -142 -75.5t-81 -134.5t-26 -188v-528h-127z" />
<glyph unicode="s" horiz-adv-x="1032" d="M63 311h127v-10q0 -41 14 -78q16 -41 55.5 -72.5t103 -50t155.5 -18.5q174 0 250 57.5t76 157.5q0 68 -55.5 100.5t-139.5 49t-181 28.5t-181 41t-139.5 86t-55.5 164q0 66 24.5 124t77 101t133.5 68.5t195 25.5q115 0 197 -27.5t134 -74.5q51 -47 75 -109 q22 -57 22 -118v-11h-127v10q1 92 -71 154q-76 66 -230 66t-228.5 -57.5t-74.5 -155.5q0 -55 33 -86t85 -49.5t119.5 -27.5t138.5 -19.5t138.5 -26.5t119.5 -47t85 -82t33 -133q0 -66 -24.5 -124t-79 -101t-140.5 -69t-209 -26q-229 1 -344 95q-111 91 -111 235v10z" />
<glyph unicode="t" horiz-adv-x="778" d="M41 946v111h274v282h127v-282h295v-111h-295v-946h-127v946h-274z" />
<glyph unicode="u" horiz-adv-x="1204" d="M102 465v592h127v-592q0 -104 27 -177t76 -119t117.5 -66.5t152.5 -20.5q82 0 150.5 22.5t118 71.5t77 126t27.5 183v572h127v-572q0 -262 -134.5 -388t-365.5 -126q-117 0 -210 28t-157.5 88t-98.5 153.5t-34 224.5z" />
<glyph unicode="v" horiz-adv-x="950" d="M-41 1057h137l371 -887h20l367 887h137l-448 -1057h-135z" />
<glyph unicode="w" horiz-adv-x="1579" d="M-41 1057h133l297 -877h19l299 877h165l299 -877h19l297 877h133l-363 -1057h-155l-303 901h-19l-303 -901h-155z" />
<glyph unicode="x" horiz-adv-x="1019" d="M0 0l428 528l-428 529h164l336 -426h20l336 426h164l-428 -529l428 -528h-164l-336 426h-20l-336 -426h-164z" />
<glyph unicode="y" horiz-adv-x="950" d="M-41 1057h137l371 -887h20l367 887h137l-614 -1446h-137l168 389z" />
<glyph unicode="z" horiz-adv-x="978" d="M61 0v111l687 815v20h-687v111h857v-111l-687 -815v-20h687v-111h-857z" />
<glyph unicode="{" horiz-adv-x="585" d="M20 676v110h33q41 0 66.5 11.5t39 39t18.5 72.5t5 111v244q0 98 16.5 169.5t56.5 117.5t109.5 68.5t176.5 22.5h24v-110h-18q-72 0 -118 -14.5t-72.5 -46t-37 -83t-10.5 -124.5v-238q0 -119 -28.5 -184.5t-94.5 -100.5v-20q66 -35 94.5 -100.5t28.5 -184.5v-237 q0 -76 11.5 -127.5t38 -83t72.5 -45t116 -13.5h18v-110h-24q-106 0 -176 22.5t-110 68.5t-56.5 117.5t-16.5 170.5v243q0 66 -5 111t-18.5 72.5t-39 39t-66.5 11.5h-33z" />
<glyph unicode="|" horiz-adv-x="331" d="M102 -180v1822h127v-1822h-127z" />
<glyph unicode="}" horiz-adv-x="585" d="M20 -70h19q72 0 118 14.5t72.5 46.5t36.5 83t10 125v237q0 119 29 184.5t94 100.5v20q-66 35 -94.5 100.5t-28.5 184.5v238q0 76 -11 127t-37.5 82.5t-72.5 45t-116 13.5h-19v110h25q106 0 176 -22.5t110 -68.5t56 -117.5t16 -169.5v-244q0 -66 5.5 -111t18.5 -72.5 t39 -39t66 -11.5h33v-110h-33q-41 0 -66.5 -11.5t-38.5 -39t-18.5 -72.5t-5.5 -111v-243q0 -98 -16 -170t-56 -118t-109.5 -68.5t-176.5 -22.5h-25v110z" />
<glyph unicode="~" horiz-adv-x="1101" d="M41 651q8 156 87 230.5t194 74.5q88 0 151.5 -49t114.5 -107.5t99 -107.5t110 -49q51 0 92 47t45 139h127q-8 -162 -88 -233.5t-193 -71.5q-59 0 -107 23.5t-87 58.5t-73 75t-67.5 75t-67.5 58.5t-75 23.5q-49 0 -90 -47.5t-45 -139.5h-127z" />
<glyph unicode="&#xa2;" horiz-adv-x="1077" d="M61 934q0 129 36 227.5t96.5 167t141.5 108.5t173 50v262h127v-262q154 -14 263.5 -104.5t137.5 -235.5h-127q-8 43 -32.5 81t-60.5 68.5t-83 51t-98 28.5v-884q51 8 98 28.5t83 51t60.5 68.5t32.5 81h127q-29 -147 -138.5 -237.5t-262.5 -104.5v-260h-127v262 q-92 10 -173 50t-141.5 108.5t-96.5 167t-36 227.5zM188 934q0 -96 24 -173t67 -132.5t101 -89t128 -45.5v880q-70 -12 -128 -46t-101 -89t-67 -132t-24 -173z" />
<glyph unicode="&#xa3;" horiz-adv-x="1146" d="M61 0v111h181v483h-181v111h181v329q0 104 29.5 188.5t84 143.5t132 92t174.5 33q123 0 206.5 -46t134 -120t69 -168t9.5 -190h-125q6 113 -16 191.5t-64 127.5t-97.5 71.5t-116.5 22.5q-66 0 -120.5 -25.5t-93 -70.5t-59 -108.5t-20.5 -139.5v-331h530v-111h-530v-483 h653v-111h-961z" />
<glyph unicode="&#xa5;" horiz-adv-x="1236" d="M-41 1462h154l499 -782h17l499 782h150l-430 -661h229v-111h-301l-94 -147v-58h395v-110h-395v-375h-127v375h-395v110h395v58l-96 147h-299v111h227z" />
<glyph unicode="&#xa8;" horiz-adv-x="757" d="M102 1346q0 41 26 66.5t67 25.5t66.5 -26t25.5 -66q0 -41 -25.5 -67t-66.5 -26t-67 26t-26 67zM471 1346q0 41 25.5 66.5t66.5 25.5t66.5 -26t25.5 -66q0 -41 -25.5 -67t-66.5 -26t-66.5 26t-25.5 67z" />
<glyph unicode="&#xa9;" horiz-adv-x="1585" d="M61 717q0 162 53.5 296t150.5 231t231.5 150.5t296.5 53.5t296 -53.5t231 -150.5t150.5 -231t53.5 -296t-53.5 -296t-150.5 -231.5t-231.5 -150.5t-295.5 -53q-162 0 -296.5 53t-231.5 150.5t-150.5 231.5t-53.5 296zM188 717q0 -137 44 -252t124 -197t191.5 -127 t245.5 -45q133 0 244.5 45t191.5 127t124 197t44 252t-44 251.5t-124 196.5t-191.5 127t-244.5 45t-245 -45t-192 -127t-124 -196.5t-44 -251.5zM350 717q0 117 34 204t93.5 143t142 85t179.5 29q76 0 144.5 -19.5t121.5 -58.5t87 -95.5t40 -132.5h-129q-10 92 -85 143.5 t-181 51.5q-66 0 -124.5 -20.5t-101.5 -63.5t-68.5 -109.5t-25.5 -156.5q0 -92 26.5 -158.5t70.5 -109.5t101.5 -62.5t121.5 -19.5q51 0 96 11t81 35.5t59.5 61.5t29.5 88h129q-6 -78 -40 -135t-87 -95t-122 -57.5t-144 -19.5q-96 0 -179 28.5t-142.5 86t-93.5 143.5 t-34 203z" />
<glyph unicode="&#xab;" horiz-adv-x="1011" d="M20 475v100l496 392v-158l-350 -268v-21l350 -266v-170zM475 475v100l496 392v-158l-350 -268v-21l350 -266v-170z" />
<glyph unicode="&#xad;" horiz-adv-x="493" d="M61 473v111h371v-111h-371z" />
<glyph unicode="&#xae;" horiz-adv-x="864" d="M61 1120q0 82 28 149.5t77 117t116.5 77t149.5 27.5t149.5 -27.5t117 -77t77 -117t27.5 -149.5t-27.5 -149.5t-77 -116.5t-117 -76.5t-149.5 -27.5t-149.5 27.5t-116.5 76.5t-77 116.5t-28 149.5zM147 1120q0 -63 20.5 -117.5t58.5 -94.5t90.5 -62.5t115.5 -22.5 t115.5 22.5t90.5 62.5t58.5 94.5t20.5 117.5t-20.5 117.5t-58.5 94.5t-90 62.5t-116 22.5q-63 0 -115.5 -22.5t-90.5 -62.5t-58.5 -94.5t-20.5 -117.5zM287 944v365h164q74 0 101.5 -31t27.5 -74q0 -33 -14.5 -58.5t-49.5 -37.5v-6q53 -16 68 -88l14 -70h-84l-14 68 q-6 31 -20.5 43t-49.5 12h-63v-123h-80zM367 1139h63q68 0 68 51q0 47 -68 47h-63v-98z" />
<glyph unicode="&#xb4;" horiz-adv-x="542" d="M102 1208l168 324h170l-204 -324h-134z" />
<glyph unicode="&#xb8;" horiz-adv-x="577" d="M102 -297q135 -29 195.5 -21.5t60.5 60.5q0 39 -26.5 48t-46.5 9h-101l37 201h88l-20 -102q84 0 135 -34t51 -112q0 -72 -52 -121t-153 -49q-51 0 -89 6t-79 19v96z" />
<glyph unicode="&#xbb;" horiz-adv-x="1011" d="M41 84v158l350 268v20l-350 267v170l496 -392v-100zM496 84v158l350 268v20l-350 267v170l495 -392v-100z" />
<glyph unicode="&#xc1;" horiz-adv-x="1294" d="M-41 0l621 1462h135l620 -1462h-139l-164 393h-774l-164 -393h-135zM305 504h680l-330 788h-20zM567 1583l221 324h185l-262 -324h-144z" />
<glyph unicode="&#xc9;" horiz-adv-x="1169" d="M102 0v1462h996v-110h-869v-566h777v-110h-777v-565h879v-111h-1006zM463 1583l221 324h184l-262 -324h-143z" />
<glyph unicode="&#xcd;" horiz-adv-x="331" d="M86 1583l221 324h185l-263 -324h-143zM102 0v1462h127v-1462h-127z" />
<glyph unicode="&#xd3;" horiz-adv-x="1517" d="M61 731q0 182 48.5 323.5t138.5 239t219 147.5t293 50q162 0 292 -50t219 -147.5t137 -239t48 -323.5t-48 -324.5t-137 -238.5t-219 -146.5t-292 -50.5q-164 0 -293 50.5t-219 146.5t-138.5 238.5t-48.5 324.5zM188 731q0 -317 148.5 -483t423.5 -166q272 0 420.5 166 t148.5 483t-148.5 483t-420.5 166q-274 0 -423 -165.5t-149 -483.5zM637 1583l221 324h184l-262 -324h-143z" />
<glyph unicode="&#xda;" d="M102 537v925h127v-930q0 -233 127 -341.5t353 -108.5q225 0 351 108.5t126 341.5v930h127v-925q0 -295 -156.5 -430.5t-447.5 -135.5q-287 0 -447 135.5t-160 430.5zM596 1583l221 324h184l-262 -324h-143z" />
<glyph unicode="&#xdd;" horiz-adv-x="1236" d="M-41 1462h154l499 -782h17l499 782h150l-596 -919v-543h-127v543zM498 1583l221 324h184l-262 -324h-143z" />
<glyph unicode="&#xe1;" horiz-adv-x="1224" d="M61 528q0 133 38 236.5t105.5 175.5t162 108.5t204.5 36.5q111 0 218.5 -40.5t185.5 -151.5h20l21 164h106v-1057h-106l-21 172h-20q-76 -115 -182.5 -158t-221.5 -43q-111 0 -205 37t-161.5 107.5t-105.5 175t-38 237.5zM188 528q0 -104 30 -187t84 -140.5t128 -88 t162 -30.5t161.5 27.5t127 83t84 139.5t30.5 196q0 113 -30.5 197t-84 139.5t-127 83t-161.5 27.5t-162 -31t-128 -88t-84 -140.5t-30 -187.5zM506 1208l168 324h170l-205 -324h-133z" />
<glyph unicode="&#xe9;" horiz-adv-x="1146" d="M61 528q0 135 41 239.5t111 175.5t164 106.5t203 35.5q115 0 210 -40.5t162.5 -117.5t101 -187.5t27.5 -247.5h-893q6 -98 38 -174t84 -128.5t121 -80t149 -27.5q98 0 185 47t130 139h129q-23 -76 -68 -131t-105 -92t-130 -55.5t-141 -18.5q-123 0 -219.5 42t-163 116 t-101.5 176.5t-35 222.5zM195 602h747q-6 86 -34.5 154.5t-76 117t-111.5 75t-140 26.5q-74 0 -139.5 -23.5t-118 -70.5t-86 -117t-41.5 -162zM467 1208l168 324h170l-205 -324h-133z" />
<glyph unicode="&#xed;" horiz-adv-x="331" d="M102 0v1057h127v-1057h-127zM104 1208l168 324h170l-204 -324h-134z" />
<glyph unicode="&#xf3;" horiz-adv-x="1204" d="M61 528q0 141 40 246t113 174.5t172 103t216 33.5q119 0 218.5 -33.5t171 -103t111.5 -174.5t40 -246t-40 -245.5t-111.5 -174t-171 -103.5t-218.5 -34q-117 0 -216 34t-172 103.5t-113 174t-40 245.5zM188 528q0 -113 31 -196.5t86 -139t131 -83t166 -27.5t166 27.5 t131 83t86 139t31 196.5t-31 197t-86 139.5t-131 83t-166 27.5t-166 -27.5t-131 -83t-86 -139.5t-31 -197zM496 1208l168 324h170l-205 -324h-133z" />
<glyph unicode="&#xfa;" horiz-adv-x="1204" d="M102 465v592h127v-592q0 -104 27 -177t76 -119t117.5 -66.5t152.5 -20.5q82 0 150.5 22.5t118 71.5t77 126t27.5 183v572h127v-572q0 -262 -134.5 -388t-365.5 -126q-117 0 -210 28t-157.5 88t-98.5 153.5t-34 224.5zM496 1208l168 324h170l-205 -324h-133z" />
<glyph unicode="&#xfd;" horiz-adv-x="950" d="M-41 1057h137l371 -887h20l367 887h137l-614 -1446h-137l168 389zM406 1208l167 324h170l-204 -324h-133z" />
<glyph unicode="&#x10c;" d="M61 727q0 195 53.5 338t145.5 238.5t216 141.5t265 46q119 0 223.5 -34t185.5 -95.5t134 -148.5t70 -193h-125q-16 84 -59.5 150.5t-108 113.5t-146 71.5t-174.5 24.5q-117 0 -218 -40t-176 -120.5t-117 -203.5t-42 -289q0 -164 42 -284.5t117 -200.5t176.5 -120 t217.5 -40q92 0 174 24.5t146.5 70.5t107.5 113.5t60 151.5h125q-16 -109 -69.5 -195.5t-134.5 -148t-185.5 -94.5t-223.5 -33q-141 0 -265 46t-216 140.5t-145.5 237t-53.5 332.5zM403 1907h129l199 -215l195 215h125l-242 -324h-164z" />
<glyph unicode="&#x10d;" horiz-adv-x="1077" d="M61 528q0 141 42 246t114 174.5t166 103t197 33.5q86 0 162.5 -24.5t137 -68.5t101.5 -107.5t55 -143.5h-127q-10 49 -38.5 91t-73.5 74t-100.5 50.5t-116.5 18.5q-82 0 -154 -28.5t-124 -86t-83 -140.5t-31 -192t31 -191.5t83 -140t124 -86t154 -28.5q61 0 116.5 18.5 t100.5 50t73.5 73.5t38.5 91h127q-14 -80 -55 -143t-101.5 -107.5t-137 -69t-162.5 -24.5q-102 0 -196.5 34t-166.5 103.5t-114 174t-42 245.5zM256 1532h129l178 -215l174 215h125l-221 -324h-164z" />
<glyph unicode="&#x10e;" horiz-adv-x="1394" d="M102 0v1462h527q145 0 274 -39t224.5 -126t150.5 -226t55 -340q0 -193 -55 -331t-150.5 -227t-224.5 -131t-274 -42h-527zM229 111h430q100 0 198.5 31.5t176.5 104t125 191.5t47 293t-47 293t-125 191.5t-176 104.5t-199 32h-430v-1241zM250 1907h129l199 -215l194 215 h125l-242 -324h-163z" />
<glyph unicode="&#x10f;" horiz-adv-x="1224" d="M61 528q0 133 38 236.5t105.5 175.5t162 108.5t204.5 36.5q111 0 218.5 -40.5t185.5 -151.5h20v569h127v-1462h-106l-21 172h-20q-76 -115 -182.5 -158t-221.5 -43q-111 0 -205 37t-161.5 107.5t-105.5 175t-38 237.5zM188 528q0 -104 30 -187t84 -140.5t128 -88 t162 -30.5t161.5 27.5t127 83t84 139.5t30.5 196q0 113 -30.5 197t-84 139.5t-127 83t-161.5 27.5t-162 -31t-128 -88t-84 -140.5t-30 -187.5zM1184 1147l35 352h161l-92 -352h-104z" />
<glyph unicode="&#x11a;" horiz-adv-x="1169" d="M102 0v1462h996v-110h-869v-566h777v-110h-777v-565h879v-111h-1006zM260 1907h129l199 -215l194 215h125l-241 -324h-164z" />
<glyph unicode="&#x11b;" horiz-adv-x="1146" d="M61 528q0 135 41 239.5t111 175.5t164 106.5t203 35.5q115 0 210 -40.5t162.5 -117.5t101 -187.5t27.5 -247.5h-893q6 -98 38 -174t84 -128.5t121 -80t149 -27.5q98 0 185 47t130 139h129q-23 -76 -68 -131t-105 -92t-130 -55.5t-141 -18.5q-123 0 -219.5 42t-163 116 t-101.5 176.5t-35 222.5zM195 602h747q-6 86 -34.5 154.5t-76 117t-111.5 75t-140 26.5q-74 0 -139.5 -23.5t-118 -70.5t-86 -117t-41.5 -162zM270 1532h129l179 -215l174 215h125l-222 -324h-163z" />
<glyph unicode="&#x147;" d="M102 0v1462h148l915 -1253h21v1253h127v-1462h-148l-915 1253h-21v-1253h-127zM383 1907h129l199 -215l194 215h125l-242 -324h-163z" />
<glyph unicode="&#x148;" horiz-adv-x="1204" d="M102 0v571q0 260 134.5 387t365.5 127q117 0 209 -28.5t156.5 -88t99.5 -152.5t35 -224v-592h-127v592q0 104 -27.5 177t-77 119t-118 66.5t-150.5 20.5q-84 0 -152.5 -22.5t-117.5 -72t-76 -126t-27 -183.5v-571h-127zM299 1532h129l178 -215l174 215h125l-221 -324 h-164z" />
<glyph unicode="&#x158;" horiz-adv-x="1323" d="M102 0v1462h533q150 0 251 -32.5t162.5 -88t88 -130t26.5 -160.5q0 -63 -12 -121t-42 -106t-81 -86t-131 -62v-21q70 -18 117 -49t78.5 -75t53 -100t38.5 -124l78 -307h-132l-73 293q-14 53 -33.5 107.5t-60.5 97.5t-111 69.5t-184 26.5h-439v-594h-127zM229 705h426 q111 0 183.5 28.5t116.5 74.5t62.5 104.5t18.5 117.5q0 61 -18.5 119.5t-62.5 102.5t-116.5 72t-183.5 28h-426v-647zM256 1907h129l199 -215l194 215h125l-241 -324h-164z" />
<glyph unicode="&#x159;" horiz-adv-x="688" d="M41 1532h129l178 -215l174 215h125l-221 -324h-164zM102 0v1057h107l20 -172h21q59 90 165.5 131t272.5 41v-121q-123 12 -210 -10.5t-142 -75.5t-81 -134t-26 -188v-528h-127z" />
<glyph unicode="&#x160;" horiz-adv-x="1275" d="M63 418h127q-2 -63 19.5 -124t74 -108t138.5 -75.5t215 -28.5q119 0 205 24.5t140 65.5t79.5 96.5t25.5 116.5q0 82 -41.5 132t-109.5 80t-155 47.5t-177 34.5t-177 41.5t-154.5 69t-109.5 116t-42 181.5q0 78 27.5 151t90 129t163 90t243.5 34q145 0 245.5 -37 t163 -99.5t89 -143.5t24.5 -169h-127q2 74 -19.5 136.5t-69.5 106.5t-124.5 69.5t-187.5 25.5q-106 0 -180 -24.5t-121 -66.5t-68.5 -96t-21.5 -114q0 -86 42 -139t109.5 -85t154.5 -50.5t177 -35.5t177 -40.5t154.5 -67t109.5 -112t42 -174.5q0 -78 -31.5 -149.5t-101 -129 t-179 -91.5t-265.5 -34q-145 0 -255 34t-181.5 93.5t-106.5 141.5t-31 178zM313 1907h129l199 -215l195 215h125l-242 -324h-164z" />
<glyph unicode="&#x161;" horiz-adv-x="1032" d="M63 311h127q-2 -47 14.5 -88t55.5 -72.5t102.5 -50t155.5 -18.5q174 0 250 57.5t76 157.5q0 68 -55.5 100.5t-139.5 49t-181 28.5t-181 41t-139.5 86t-55.5 164q0 66 24.5 124t77 101t133.5 68.5t195 25.5q115 0 197 -27.5t134 -74.5t75.5 -108.5t21.5 -129.5h-127 q4 98 -71.5 164t-229.5 66t-228.5 -57.5t-74.5 -155.5q0 -55 33 -86t85 -49.5t119.5 -27.5t138.5 -19.5t138.5 -26.5t119.5 -47t85 -82t33 -133q0 -66 -24.5 -124t-79 -101t-140.5 -69t-209 -26q-229 0 -344 94.5t-111 245.5zM213 1532h129l178 -215l174 215h125l-221 -324 h-164z" />
<glyph unicode="&#x164;" horiz-adv-x="1138" d="M0 1352v110h1139v-110h-506v-1352h-127v1352h-506zM246 1907h129l198 -215l195 215h125l-242 -324h-164z" />
<glyph unicode="&#x165;" horiz-adv-x="778" d="M41 946v111h274v282h127v-282h295v-111h-295v-946h-127v946h-274zM504 1147l35 352h161l-92 -352h-104z" />
<glyph unicode="&#x16e;" d="M102 537v925h127v-930q0 -233 127 -341.5t353 -108.5q225 0 351 108.5t126 341.5v930h127v-925q0 -295 -156.5 -430.5t-447.5 -135.5q-287 0 -447 135.5t-160 430.5zM485 1724q0 92 63.5 152.5t158.5 60.5q94 0 157.5 -60t63.5 -153q0 -92 -63.5 -152.5t-157.5 -60.5 t-158 60.5t-64 152.5zM592 1724q0 -53 32.5 -90t82.5 -37q51 0 82.5 37t31.5 90q0 55 -31.5 91t-82.5 36q-49 0 -82 -36t-33 -91z" />
<glyph unicode="&#x16f;" horiz-adv-x="1204" d="M102 465v592h127v-592q0 -104 27 -177t76 -119t117.5 -66.5t152.5 -20.5q82 0 150.5 22.5t118 71.5t77 126t27.5 183v572h127v-572q0 -262 -134.5 -388t-365.5 -126q-117 0 -210 28t-157.5 88t-98.5 153.5t-34 224.5zM381 1360q0 92 63.5 152.5t157.5 60.5t157.5 -60.5 t63.5 -152.5t-63.5 -152.5t-157.5 -60.5t-157.5 60.5t-63.5 152.5zM487 1360q0 -53 33 -90t82 -37q51 0 83 37t32 90q0 55 -32 91t-83 36q-49 0 -82 -36t-33 -91z" />
<glyph unicode="&#x17d;" horiz-adv-x="1210" d="M61 0v111l922 1220v21h-922v110h1088v-110l-922 -1221v-20h922v-111h-1088zM281 1907h129l198 -215l195 215h125l-242 -324h-164z" />
<glyph unicode="&#x17e;" horiz-adv-x="978" d="M61 0v111l687 815v20h-687v111h857v-111l-687 -815v-20h687v-111h-857zM186 1532h129l179 -215l174 215h125l-222 -324h-163z" />
<glyph unicode="&#x2c6;" horiz-adv-x="811" d="M102 1208l222 324h163l222 -324h-129l-179 215l-174 -215h-125z" />
<glyph unicode="&#x2da;" horiz-adv-x="643" d="M100 1360q0 92 63.5 152.5t158.5 60.5q94 0 157.5 -60.5t63.5 -152.5t-63.5 -152.5t-157.5 -60.5t-158 60.5t-64 152.5zM207 1360q0 -53 32.5 -90t82.5 -37q51 0 82.5 37t31.5 90q0 55 -31.5 91t-82.5 36q-49 0 -82 -36t-33 -91z" />
<glyph unicode="&#x2dc;" horiz-adv-x="948" d="M102 1231q8 119 74 179t152 60q61 0 98 -24.5t64.5 -54t53 -54t62.5 -24.5q33 0 67 30.5t42 96.5h110q-8 -119 -73.5 -179.5t-151.5 -60.5q-61 0 -99 24.5t-65.5 54.5t-52.5 54.5t-61 24.5q-33 0 -67 -31t-42 -96h-111z" />
<glyph unicode="&#x2000;" horiz-adv-x="968" />
<glyph unicode="&#x2001;" horiz-adv-x="1937" />
<glyph unicode="&#x2002;" horiz-adv-x="968" />
<glyph unicode="&#x2003;" horiz-adv-x="1937" />
<glyph unicode="&#x2004;" horiz-adv-x="645" />
<glyph unicode="&#x2005;" horiz-adv-x="484" />
<glyph unicode="&#x2006;" horiz-adv-x="322" />
<glyph unicode="&#x2007;" horiz-adv-x="322" />
<glyph unicode="&#x2008;" horiz-adv-x="242" />
<glyph unicode="&#x2009;" horiz-adv-x="387" />
<glyph unicode="&#x200a;" horiz-adv-x="107" />
<glyph unicode="&#x2010;" horiz-adv-x="493" d="M61 473v111h371v-111h-371z" />
<glyph unicode="&#x2011;" horiz-adv-x="493" d="M61 473v111h371v-111h-371z" />
<glyph unicode="&#x2012;" horiz-adv-x="493" d="M61 473v111h371v-111h-371z" />
<glyph unicode="&#x2013;" horiz-adv-x="1064" d="M61 473v111h943v-111h-943z" />
<glyph unicode="&#x2014;" horiz-adv-x="2068" d="M61 473v111h1946v-111h-1946z" />
<glyph unicode="&#x2018;" horiz-adv-x="346" d="M63 1159l142 488h100l-53 -488h-189z" />
<glyph unicode="&#x2019;" horiz-adv-x="346" d="M41 1159l53 488h189l-142 -488h-100z" />
<glyph unicode="&#x201a;" horiz-adv-x="346" d="M41 -266l53 487h189l-142 -487h-100z" />
<glyph unicode="&#x201c;" horiz-adv-x="624" d="M63 1159l142 488h100l-53 -488h-189zM342 1159l141 488h101l-54 -488h-188z" />
<glyph unicode="&#x201d;" horiz-adv-x="624" d="M41 1159l53 488h189l-142 -488h-100zM319 1159l54 488h188l-141 -488h-101z" />
<glyph unicode="&#x201e;" horiz-adv-x="624" d="M41 -266l53 487h189l-142 -487h-100zM319 -266l54 487h188l-141 -487h-101z" />
<glyph unicode="&#x2026;" horiz-adv-x="1402" d="M61 98q0 47 32 79t81 32q47 0 79 -32t32 -79q0 -49 -32 -80.5t-79 -31.5q-49 0 -81 31.5t-32 80.5zM590 98q0 47 31.5 79t80.5 32q47 0 79 -32t32 -79q0 -49 -31.5 -80.5t-79.5 -31.5q-49 0 -80.5 31.5t-31.5 80.5zM1118 98q0 47 32 79t81 32q47 0 78.5 -32t31.5 -79 q0 -49 -31.5 -80.5t-78.5 -31.5q-49 0 -81 31.5t-32 80.5z" />
<glyph unicode="&#x202f;" horiz-adv-x="387" />
<glyph unicode="&#x2039;" horiz-adv-x="557" d="M20 475v100l496 392v-158l-350 -268v-21l350 -266v-170z" />
<glyph unicode="&#x203a;" horiz-adv-x="557" d="M41 84v158l350 268v20l-350 267v170l496 -392v-100z" />
<glyph unicode="&#x205f;" horiz-adv-x="484" />
<glyph unicode="&#x20ac;" horiz-adv-x="1456" d="M20 518v111h207q-2 23 -2 47v51v54.5t4 52.5h-209v110h222q25 137 81 240.5t135 171t176 101.5t208 34q106 0 200.5 -34t168 -95.5t120.5 -148.5t64 -193h-125q-29 168 -145.5 264t-282.5 96q-174 0 -300 -106.5t-171 -329.5h606l-21 -110h-600q-4 -27 -4 -52.5v-54.5 v-51.5t2 -46.5h561l-20 -111h-524q43 -221 170 -328.5t301 -107.5q166 0 282.5 95t145.5 265h125q-16 -109 -63.5 -195.5t-121 -148t-168 -94.5t-200.5 -33q-111 0 -209 34t-177 101.5t-134.5 170t-79.5 241.5h-222z" />
<glyph unicode="&#x2122;" horiz-adv-x="1120" d="M20 1378v84h390v-84h-148v-432h-94v432h-148zM485 946v516h133l152 -383h12l152 383h125v-516h-84v385h-12l-154 -385h-74l-153 385h-13v-385h-84z" />
<glyph unicode="&#xe000;" horiz-adv-x="1054" d="M0 0v1055h1055v-1055h-1055z" />
</font>
</defs>
</svg>
